# MagicaVoxel @ Ephtracy

# group
o Walls

# material
mtllib Kitchen-19-Walls.mtl
usemtl palette

# normals
vn 1 0 0
vn -1 0 0
vn 0 0 -1
vn 0 0 1
vn 0 -1 0
vn 0 1 0

# texcoords
vt 0.970703 0.5
vt 0.974609 0.5

# verts
v 3.1 0.1 -1.1
v 3.1 0.1 3.7
v 3.1 0.1 3.9
v 3.1 6.2 -1.1
v 3.1 6.2 3.7
v 3.1 6.2 3.9
v -1.3 1.2 3.8
v -1.3 1.2 3.9
v -1.3 2.3 3.8
v -1.3 2.3 3.9
v -3 0.1 -1.1
v -3 0.1 3.7
v -3 0.1 3.8
v -3 6.2 -1.1
v -3 6.2 3.7
v -3 6.2 3.8
v 3 0.1 -1.1
v 3 0.1 3.7
v 3 0.1 3.8
v 3 6.2 -1.1
v 3 6.2 3.7
v 3 6.2 3.8
v 0.9 1.2 3.8
v 0.9 1.2 3.9
v 0.9 2.3 3.8
v 0.9 2.3 3.9
v -3.1 0.1 -1.1
v -3.1 0.1 3.7
v -3.1 0.1 3.9
v -3.1 6.2 -1.1
v -3.1 6.2 3.7
v -3.1 6.2 3.9
v 3.1 0.1 -1.1
v 3.1 6.2 -1.1
v 3 0.1 -1.1
v 3 6.2 -1.1
v -3 0.1 -1.1
v -3 6.2 -1.1
v -3.1 0.1 -1.1
v -3.1 6.2 -1.1
v 3 0.1 3.8
v 3 6.2 3.8
v 2.9 0.1 3.8
v 2.9 6.2 3.8
v 0.9 1.2 3.8
v 0.9 2.3 3.8
v -1.3 1.2 3.8
v -1.3 2.3 3.8
v -2.9 0.1 3.8
v -2.9 6.2 3.8
v -3 0.1 3.8
v -3 6.2 3.8
v 3.1 0.1 3.9
v 3.1 6.2 3.9
v 2.9 0.1 3.9
v 2.9 6.2 3.9
v 0.9 1.2 3.9
v 0.9 2.3 3.9
v -1.3 1.2 3.9
v -1.3 2.3 3.9
v -2.9 0.1 3.9
v -2.9 6.2 3.9
v -3.1 0.1 3.9
v -3.1 6.2 3.9
v 3.1 0.1 -1.1
v 3 0.1 -1.1
v -3 0.1 -1.1
v -3.1 0.1 -1.1
v 3.1 0.1 3.7
v 3 0.1 3.7
v -3 0.1 3.7
v -3.1 0.1 3.7
v 3 0.1 3.8
v 2.9 0.1 3.8
v -2.9 0.1 3.8
v -3 0.1 3.8
v 3.1 0.1 3.9
v 2.9 0.1 3.9
v -2.9 0.1 3.9
v -3.1 0.1 3.9
v 0.9 2.3 3.8
v -1.3 2.3 3.8
v 0.9 2.3 3.9
v -1.3 2.3 3.9
v 0.9 1.2 3.8
v -1.3 1.2 3.8
v 0.9 1.2 3.9
v -1.3 1.2 3.9
v 3.1 6.2 -1.1
v 3 6.2 -1.1
v -3 6.2 -1.1
v -3.1 6.2 -1.1
v 3.1 6.2 3.7
v 3 6.2 3.7
v -3 6.2 3.7
v -3.1 6.2 3.7
v 3 6.2 3.8
v 2.9 6.2 3.8
v -2.9 6.2 3.8
v -3 6.2 3.8
v 3.1 6.2 3.9
v 2.9 6.2 3.9
v -2.9 6.2 3.9
v -3.1 6.2 3.9

# faces
f 4/1/1 2/1/1 1/1/1
f 5/2/1 3/2/1 2/2/1
f 5/1/1 2/1/1 4/1/1
f 6/2/1 3/2/1 5/2/1
f 9/1/1 8/1/1 7/1/1
f 10/1/1 8/1/1 9/1/1
f 14/1/1 12/1/1 11/1/1
f 15/2/1 13/2/1 12/2/1
f 15/1/1 12/1/1 14/1/1
f 16/2/1 13/2/1 15/2/1
f 17/1/2 18/1/2 20/1/2
f 18/2/2 19/2/2 21/2/2
f 20/1/2 18/1/2 21/1/2
f 21/2/2 19/2/2 22/2/2
f 23/1/2 24/1/2 25/1/2
f 25/1/2 24/1/2 26/1/2
f 27/1/2 28/1/2 30/1/2
f 28/2/2 29/2/2 31/2/2
f 30/1/2 28/1/2 31/1/2
f 31/2/2 29/2/2 32/2/2
f 35/1/3 34/1/3 33/1/3
f 36/1/3 34/1/3 35/1/3
f 39/1/3 38/1/3 37/1/3
f 40/1/3 38/1/3 39/1/3
f 43/2/3 42/2/3 41/2/3
f 44/2/3 42/2/3 43/2/3
f 45/1/3 44/1/3 43/1/3
f 46/1/3 44/1/3 45/1/3
f 47/1/3 45/1/3 43/1/3
f 48/1/3 44/1/3 46/1/3
f 49/1/3 47/1/3 43/1/3
f 49/1/3 48/1/3 47/1/3
f 50/1/3 44/1/3 48/1/3
f 50/1/3 48/1/3 49/1/3
f 51/2/3 50/2/3 49/2/3
f 52/2/3 50/2/3 51/2/3
f 53/2/4 54/2/4 55/2/4
f 55/2/4 54/2/4 56/2/4
f 55/1/4 56/1/4 57/1/4
f 57/1/4 56/1/4 58/1/4
f 55/1/4 57/1/4 59/1/4
f 58/1/4 56/1/4 60/1/4
f 55/1/4 59/1/4 61/1/4
f 59/1/4 60/1/4 61/1/4
f 60/1/4 56/1/4 62/1/4
f 61/1/4 60/1/4 62/1/4
f 61/2/4 62/2/4 63/2/4
f 63/2/4 62/2/4 64/2/4
f 69/1/5 66/1/5 65/1/5
f 70/1/5 66/1/5 69/1/5
f 71/1/5 68/1/5 67/1/5
f 72/1/5 68/1/5 71/1/5
f 73/2/5 70/2/5 69/2/5
f 76/2/5 72/2/5 71/2/5
f 77/2/5 73/2/5 69/2/5
f 77/2/5 74/2/5 73/2/5
f 78/1/5 75/1/5 74/1/5
f 78/2/5 74/2/5 77/2/5
f 79/2/5 76/2/5 75/2/5
f 79/1/5 75/1/5 78/1/5
f 80/2/5 72/2/5 76/2/5
f 80/2/5 76/2/5 79/2/5
f 83/1/5 82/1/5 81/1/5
f 84/1/5 82/1/5 83/1/5
f 85/1/6 86/1/6 87/1/6
f 87/1/6 86/1/6 88/1/6
f 89/1/6 90/1/6 93/1/6
f 93/1/6 90/1/6 94/1/6
f 91/1/6 92/1/6 95/1/6
f 95/1/6 92/1/6 96/1/6
f 93/2/6 94/2/6 97/2/6
f 95/2/6 96/2/6 100/2/6
f 93/2/6 97/2/6 101/2/6
f 97/2/6 98/2/6 101/2/6
f 98/1/6 99/1/6 102/1/6
f 101/2/6 98/2/6 102/2/6
f 99/2/6 100/2/6 103/2/6
f 102/1/6 99/1/6 103/1/6
f 100/2/6 96/2/6 104/2/6
f 103/2/6 100/2/6 104/2/6
