# MagicaVoxel @ Ephtracy

# group
o FridgeStatic

# material
mtllib Kitchen-17-FridgeStatic.mtl
usemtl palette

# normals
vn 1 0 0
vn -1 0 0
vn 0 0 -1
vn 0 0 1
vn 0 -1 0
vn 0 1 0

# texcoords
vt 0.876953 0.5
vt 0.880859 0.5
vt 0.884766 0.5

# verts
v 2.2 0.1 3.1
v 2.2 0.1 3.8
v 2.2 0.2 3.2
v 2.2 0.2 3.7
v 2.2 1.8 3.2
v 2.2 1.8 3.7
v 2.2 1.9 3.1
v 2.2 1.9 3.8
v 1.3 0.2 3.1
v 1.3 0.2 3.2
v 1.3 0.2 3.7
v 1.3 1.1 3.1
v 1.3 1.1 3.2
v 1.3 1.1 3.7
v 1.3 1.2 3.1
v 1.3 1.2 3.2
v 1.3 1.2 3.7
v 1.3 1.8 3.1
v 1.3 1.8 3.2
v 1.3 1.8 3.7
v 2.1 0.2 3.1
v 2.1 0.2 3.2
v 2.1 0.2 3.7
v 2.1 1.1 3.1
v 2.1 1.1 3.2
v 2.1 1.1 3.7
v 2.1 1.2 3.1
v 2.1 1.2 3.2
v 2.1 1.2 3.7
v 2.1 1.8 3.1
v 2.1 1.8 3.2
v 2.1 1.8 3.7
v 1.2 0.1 3.1
v 1.2 0.1 3.8
v 1.2 0.2 3.2
v 1.2 0.2 3.7
v 1.2 1.8 3.2
v 1.2 1.8 3.7
v 1.2 1.9 3.1
v 1.2 1.9 3.8
v 2.2 0.1 3.1
v 2.2 1.9 3.1
v 2.1 0.2 3.1
v 2.1 1.1 3.1
v 2.1 1.2 3.1
v 2.1 1.8 3.1
v 1.3 0.2 3.1
v 1.3 1.1 3.1
v 1.3 1.2 3.1
v 1.3 1.8 3.1
v 1.2 0.1 3.1
v 1.2 1.9 3.1
v 2.1 0.2 3.7
v 2.1 1.1 3.7
v 2.1 1.2 3.7
v 2.1 1.8 3.7
v 1.3 0.2 3.7
v 1.3 1.1 3.7
v 1.3 1.2 3.7
v 1.3 1.8 3.7
v 2.2 0.1 3.8
v 2.2 1.9 3.8
v 2.1 0.2 3.8
v 2.1 1.8 3.8
v 1.3 0.2 3.8
v 1.3 1.8 3.8
v 1.2 0.1 3.8
v 1.2 1.9 3.8
v 2.2 0.1 3.1
v 1.2 0.1 3.1
v 2.1 0.1 3.2
v 1.3 0.1 3.2
v 2.1 0.1 3.7
v 1.3 0.1 3.7
v 2.2 0.1 3.8
v 1.2 0.1 3.8
v 2.1 1.1 3.1
v 1.3 1.1 3.1
v 2.1 1.1 3.2
v 1.3 1.1 3.2
v 2.1 1.1 3.7
v 1.3 1.1 3.7
v 2.1 1.8 3.1
v 1.3 1.8 3.1
v 2.1 1.8 3.2
v 1.3 1.8 3.2
v 2.1 1.8 3.7
v 1.3 1.8 3.7
v 2.1 0.2 3.1
v 1.3 0.2 3.1
v 2.1 0.2 3.2
v 1.3 0.2 3.2
v 2.1 0.2 3.7
v 1.3 0.2 3.7
v 2.1 1.2 3.1
v 1.3 1.2 3.1
v 2.1 1.2 3.2
v 1.3 1.2 3.2
v 2.1 1.2 3.7
v 1.3 1.2 3.7
v 2.2 1.9 3.1
v 1.2 1.9 3.1
v 2.1 1.9 3.2
v 1.3 1.9 3.2
v 2.1 1.9 3.7
v 1.3 1.9 3.7
v 2.2 1.9 3.8
v 1.2 1.9 3.8

# faces
f 3/1/1 2/1/1 1/1/1
f 4/1/1 2/1/1 3/1/1
f 5/1/1 3/1/1 1/1/1
f 5/2/1 4/2/1 3/2/1
f 6/1/1 2/1/1 4/1/1
f 6/2/1 4/2/1 5/2/1
f 7/1/1 5/1/1 1/1/1
f 7/1/1 6/1/1 5/1/1
f 8/1/1 2/1/1 6/1/1
f 8/1/1 6/1/1 7/1/1
f 12/1/1 10/1/1 9/1/1
f 13/2/1 11/2/1 10/2/1
f 13/1/1 10/1/1 12/1/1
f 14/2/1 11/2/1 13/2/1
f 18/1/1 16/1/1 15/1/1
f 19/2/1 17/2/1 16/2/1
f 19/1/1 16/1/1 18/1/1
f 20/2/1 17/2/1 19/2/1
f 21/1/2 22/1/2 24/1/2
f 22/2/2 23/2/2 25/2/2
f 24/1/2 22/1/2 25/1/2
f 25/2/2 23/2/2 26/2/2
f 27/1/2 28/1/2 30/1/2
f 28/2/2 29/2/2 31/2/2
f 30/1/2 28/1/2 31/1/2
f 31/2/2 29/2/2 32/2/2
f 33/1/2 34/1/2 35/1/2
f 35/1/2 34/1/2 36/1/2
f 33/1/2 35/1/2 37/1/2
f 35/2/2 36/2/2 37/2/2
f 36/1/2 34/1/2 38/1/2
f 37/2/2 36/2/2 38/2/2
f 33/1/2 37/1/2 39/1/2
f 37/1/2 38/1/2 39/1/2
f 38/1/2 34/1/2 40/1/2
f 39/1/2 38/1/2 40/1/2
f 43/1/3 42/1/3 41/1/3
f 44/1/3 42/1/3 43/1/3
f 45/1/3 42/1/3 44/1/3
f 46/1/3 42/1/3 45/1/3
f 47/1/3 43/1/3 41/1/3
f 48/3/3 45/3/3 44/3/3
f 49/3/3 45/3/3 48/3/3
f 50/1/3 42/1/3 46/1/3
f 51/1/3 49/1/3 48/1/3
f 51/1/3 50/1/3 49/1/3
f 51/1/3 47/1/3 41/1/3
f 51/1/3 48/1/3 47/1/3
f 52/1/3 42/1/3 50/1/3
f 52/1/3 50/1/3 51/1/3
f 57/2/3 54/2/3 53/2/3
f 58/2/3 54/2/3 57/2/3
f 59/2/3 56/2/3 55/2/3
f 60/2/3 56/2/3 59/2/3
f 61/1/4 62/1/4 63/1/4
f 63/1/4 62/1/4 64/1/4
f 61/1/4 63/1/4 65/1/4
f 63/2/4 64/2/4 65/2/4
f 64/1/4 62/1/4 66/1/4
f 65/2/4 64/2/4 66/2/4
f 61/1/4 65/1/4 67/1/4
f 65/1/4 66/1/4 67/1/4
f 66/1/4 62/1/4 68/1/4
f 67/1/4 66/1/4 68/1/4
f 71/1/5 70/1/5 69/1/5
f 72/1/5 70/1/5 71/1/5
f 73/1/5 71/1/5 69/1/5
f 73/2/5 72/2/5 71/2/5
f 74/1/5 70/1/5 72/1/5
f 74/2/5 72/2/5 73/2/5
f 75/1/5 73/1/5 69/1/5
f 75/1/5 74/1/5 73/1/5
f 76/1/5 70/1/5 74/1/5
f 76/1/5 74/1/5 75/1/5
f 79/3/5 78/3/5 77/3/5
f 80/3/5 78/3/5 79/3/5
f 81/3/5 80/3/5 79/3/5
f 82/3/5 80/3/5 81/3/5
f 85/1/5 84/1/5 83/1/5
f 86/1/5 84/1/5 85/1/5
f 87/2/5 86/2/5 85/2/5
f 88/2/5 86/2/5 87/2/5
f 89/1/6 90/1/6 91/1/6
f 91/1/6 90/1/6 92/1/6
f 91/2/6 92/2/6 93/2/6
f 93/2/6 92/2/6 94/2/6
f 95/3/6 96/3/6 97/3/6
f 97/3/6 96/3/6 98/3/6
f 97/3/6 98/3/6 99/3/6
f 99/3/6 98/3/6 100/3/6
f 101/1/6 102/1/6 103/1/6
f 103/1/6 102/1/6 104/1/6
f 101/1/6 103/1/6 105/1/6
f 103/2/6 104/2/6 105/2/6
f 104/1/6 102/1/6 106/1/6
f 105/2/6 104/2/6 106/2/6
f 101/1/6 105/1/6 107/1/6
f 105/1/6 106/1/6 107/1/6
f 106/1/6 102/1/6 108/1/6
f 107/1/6 106/1/6 108/1/6
