# MagicaVoxel @ Ephtracy

# group
o Cabinets

# material
mtllib Kitchen-13-Cabinets.mtl
usemtl palette

# normals
vn 1 0 0
vn -1 0 0
vn 0 0 -1
vn 0 0 1
vn 0 -1 0
vn 0 1 0

# texcoords
vt 0.845703 0.5
vt 0.849609 0.5
vt 0.857422 0.5
vt 0.869141 0.5

# verts
v 3 0.1 1.7
v 3 0.1 3.8
v 3 0.2 1.8
v 3 0.2 3.7
v 3 0.7 1.7
v 3 0.7 1.8
v 3 0.7 3.7
v 3 0.7 3.8
v 2.5 0.2 2.2
v 2.5 0.2 2.3
v 2.5 0.2 3.3
v 2.5 0.2 3.4
v 2.5 0.6 3.3
v 2.5 0.6 3.4
v 2.5 0.7 2.2
v 2.5 0.7 2.3
v 2.5 0.7 3.3
v 2.5 0.7 3.4
v 2.3 0.2 3.7
v 2.3 0.2 3.8
v 2.3 0.7 3.7
v 2.3 0.7 3.8
v 1.2 0.1 3.3
v 1.2 0.1 3.8
v 1.2 0.2 3.3
v 1.2 0.2 3.7
v 1.2 0.4 3.3
v 1.2 0.4 3.7
v 1.2 0.5 3.3
v 1.2 0.5 3.7
v 1.2 0.7 3.7
v 1.2 0.7 3.8
v 0.3 0.2 3.3
v 0.3 0.2 3.7
v 0.3 0.4 3.3
v 0.3 0.4 3.7
v 0.3 0.5 3.3
v 0.3 0.5 3.7
v 0.3 0.7 3.3
v 0.3 0.7 3.7
v -0.5 0.1 3.2
v -0.5 0.1 3.3
v -0.5 0.2 3.3
v -0.5 0.7 3.2
v -0.5 0.7 3.3
v -1.3 0.1 3.2
v -1.3 0.1 3.3
v -1.3 0.2 3.3
v -1.3 0.7 3.2
v -1.3 0.7 3.3
v -2 0.2 3.7
v -2 0.2 3.8
v -2 0.7 3.7
v -2 0.7 3.8
v 2.9 0.2 3.7
v 2.9 0.2 3.8
v 2.9 0.7 3.7
v 2.9 0.7 3.8
v 2.5 0.1 1.7
v 2.5 0.1 1.8
v 2.5 0.1 2.2
v 2.5 0.1 2.3
v 2.5 0.1 3.3
v 2.5 0.2 1.7
v 2.5 0.2 1.8
v 2.5 0.2 2.2
v 2.5 0.2 2.3
v 2.5 0.2 3.3
v 2.5 0.7 1.7
v 2.5 0.7 1.8
v 2.4 0.1 2.2
v 2.4 0.1 2.3
v 2.4 0.7 2.2
v 2.4 0.7 2.3
v 2.2 0.1 3.3
v 2.2 0.1 3.8
v 2.2 0.2 3.4
v 2.2 0.2 3.7
v 2.2 0.7 3.3
v 2.2 0.7 3.4
v 2.2 0.7 3.7
v 2.2 0.7 3.8
v 0.2 0.2 3.3
v 0.2 0.2 3.7
v 0.2 0.2 3.8
v 0.2 0.7 3.3
v 0.2 0.7 3.7
v 0.2 0.7 3.8
v -0.6 0.1 3.2
v -0.6 0.1 3.3
v -0.6 0.2 3.3
v -0.6 0.7 3.2
v -0.6 0.7 3.3
v -1.4 0.1 3.2
v -1.4 0.1 3.3
v -1.4 0.2 3.3
v -1.4 0.7 3.2
v -1.4 0.7 3.3
v -2.1 0.1 3.3
v -2.1 0.1 3.8
v -2.1 0.2 3.3
v -2.1 0.2 3.7
v -2.1 0.7 3.7
v -2.1 0.7 3.8
v 3 0.1 1.7
v 3 0.7 1.7
v 2.9 0.2 1.7
v 2.9 0.7 1.7
v 2.5 0.1 1.7
v 2.5 0.2 1.7
v 2.5 0.7 1.7
v 2.5 0.1 2.2
v 2.5 0.2 2.2
v 2.5 0.7 2.2
v 2.4 0.1 2.2
v 2.4 0.7 2.2
v -0.5 0.1 3.2
v -0.5 0.7 3.2
v -0.6 0.1 3.2
v -0.6 0.7 3.2
v -1.3 0.1 3.2
v -1.3 0.7 3.2
v -1.4 0.1 3.2
v -1.4 0.7 3.2
v 2.5 0.1 3.3
v 2.5 0.2 3.3
v 2.5 0.6 3.3
v 2.5 0.7 3.3
v 2.3 0.2 3.3
v 2.3 0.6 3.3
v 2.2 0.1 3.3
v 2.2 0.7 3.3
v 1.2 0.1 3.3
v 1.2 0.2 3.3
v 1.2 0.4 3.3
v 1.2 0.5 3.3
v 0.3 0.1 3.3
v 0.3 0.2 3.3
v 0.3 0.4 3.3
v 0.3 0.5 3.3
v 0.3 0.7 3.3
v 0.2 0.2 3.3
v 0.2 0.7 3.3
v -0.5 0.1 3.3
v -0.5 0.2 3.3
v -0.6 0.1 3.3
v -0.6 0.2 3.3
v -1.3 0.1 3.3
v -1.3 0.2 3.3
v -1.4 0.1 3.3
v -1.4 0.2 3.3
v -2.1 0.1 3.3
v -2.1 0.2 3.3
v 3 0.2 3.7
v 3 0.7 3.7
v 2.9 0.2 3.7
v 2.9 0.7 3.7
v 2.3 0.2 3.7
v 2.3 0.7 3.7
v 2.2 0.2 3.7
v 2.2 0.7 3.7
v 1.2 0.2 3.7
v 1.2 0.4 3.7
v 1.2 0.5 3.7
v 1.2 0.7 3.7
v 0.3 0.2 3.7
v 0.3 0.4 3.7
v 0.3 0.5 3.7
v 0.3 0.7 3.7
v -2 0.2 3.7
v -2 0.7 3.7
v -2.1 0.2 3.7
v -2.1 0.7 3.7
v 3 0.2 1.8
v 3 0.7 1.8
v 2.9 0.2 1.8
v 2.9 0.7 1.8
v 2.5 0.2 1.8
v 2.5 0.7 1.8
v 2.5 0.1 2.3
v 2.5 0.2 2.3
v 2.5 0.7 2.3
v 2.4 0.1 2.3
v 2.4 0.7 2.3
v -0.5 0.2 3.3
v -0.5 0.7 3.3
v -0.6 0.2 3.3
v -0.6 0.7 3.3
v -1.3 0.2 3.3
v -1.3 0.7 3.3
v -1.4 0.2 3.3
v -1.4 0.7 3.3
v 2.5 0.2 3.4
v 2.5 0.6 3.4
v 2.5 0.7 3.4
v 2.3 0.2 3.4
v 2.3 0.6 3.4
v 2.2 0.2 3.4
v 2.2 0.7 3.4
v 3 0.1 3.8
v 3 0.7 3.8
v 2.9 0.2 3.8
v 2.9 0.7 3.8
v 2.3 0.2 3.8
v 2.3 0.7 3.8
v 2.2 0.1 3.8
v 2.2 0.7 3.8
v 1.2 0.1 3.8
v 1.2 0.7 3.8
v 0.3 0.1 3.8
v 0.3 0.7 3.8
v 0.2 0.2 3.8
v 0.2 0.7 3.8
v -2 0.2 3.8
v -2 0.7 3.8
v -2.1 0.1 3.8
v -2.1 0.7 3.8
v 3 0.1 1.7
v 2.5 0.1 1.7
v 2.9 0.1 1.8
v 2.5 0.1 1.8
v 2.5 0.1 2.2
v 2.4 0.1 2.2
v 2.5 0.1 2.3
v 2.4 0.1 2.3
v -0.5 0.1 3.2
v -0.6 0.1 3.2
v -1.3 0.1 3.2
v -1.4 0.1 3.2
v 2.5 0.1 3.3
v 2.2 0.1 3.3
v 1.2 0.1 3.3
v 0.3 0.1 3.3
v -0.5 0.1 3.3
v -0.6 0.1 3.3
v -1.3 0.1 3.3
v -1.4 0.1 3.3
v -2.1 0.1 3.3
v 2.5 0.1 3.4
v 2.3 0.1 3.4
v 2.9 0.1 3.7
v 2.3 0.1 3.7
v 3 0.1 3.8
v 2.2 0.1 3.8
v 1.2 0.1 3.8
v 0.3 0.1 3.8
v -2.1 0.1 3.8
v 1.2 0.4 3.3
v 0.3 0.4 3.3
v 1.2 0.4 3.7
v 0.3 0.4 3.7
v 3 0.2 1.8
v 2.9 0.2 1.8
v 2.5 0.2 1.8
v 2.5 0.2 2.2
v 2.5 0.2 2.3
v 2.5 0.2 3.3
v 1.2 0.2 3.3
v 0.3 0.2 3.3
v 0.2 0.2 3.3
v -0.5 0.2 3.3
v -0.6 0.2 3.3
v -1.3 0.2 3.3
v -1.4 0.2 3.3
v -2.1 0.2 3.3
v 2.5 0.2 3.4
v 2.3 0.2 3.4
v 2.2 0.2 3.4
v 3 0.2 3.7
v 2.9 0.2 3.7
v 2.3 0.2 3.7
v 2.2 0.2 3.7
v 1.2 0.2 3.7
v 0.3 0.2 3.7
v 0.2 0.2 3.7
v -2 0.2 3.7
v -2.1 0.2 3.7
v 2.9 0.2 3.8
v 2.3 0.2 3.8
v 0.2 0.2 3.8
v -2 0.2 3.8
v 1.2 0.5 3.3
v 0.3 0.5 3.3
v 1.2 0.5 3.7
v 0.3 0.5 3.7
v 3 0.7 1.7
v 2.9 0.7 1.7
v 2.5 0.7 1.7
v 3 0.7 1.8
v 2.9 0.7 1.8
v 2.5 0.7 1.8
v 2.5 0.7 2.2
v 2.4 0.7 2.2
v 2.5 0.7 2.3
v 2.4 0.7 2.3
v -0.5 0.7 3.2
v -0.6 0.7 3.2
v -1.3 0.7 3.2
v -1.4 0.7 3.2
v 2.5 0.7 3.3
v 2.2 0.7 3.3
v 0.3 0.7 3.3
v 0.2 0.7 3.3
v -0.5 0.7 3.3
v -0.6 0.7 3.3
v -1.3 0.7 3.3
v -1.4 0.7 3.3
v 2.5 0.7 3.4
v 2.2 0.7 3.4
v 3 0.7 3.7
v 2.9 0.7 3.7
v 2.3 0.7 3.7
v 2.2 0.7 3.7
v 1.2 0.7 3.7
v 0.3 0.7 3.7
v 0.2 0.7 3.7
v -2 0.7 3.7
v -2.1 0.7 3.7
v 3 0.7 3.8
v 2.9 0.7 3.8
v 2.3 0.7 3.8
v 2.2 0.7 3.8
v 1.2 0.7 3.8
v 0.3 0.7 3.8
v 0.2 0.7 3.8
v -2 0.7 3.8
v -2.1 0.7 3.8

# faces
f 3/1/1 2/1/1 1/1/1
f 4/1/1 2/1/1 3/1/1
f 5/1/1 3/1/1 1/1/1
f 6/1/1 3/1/1 5/1/1
f 7/1/1 2/1/1 4/1/1
f 8/1/1 2/1/1 7/1/1
f 13/2/1 12/2/1 11/2/1
f 14/2/1 12/2/1 13/2/1
f 15/1/1 10/1/1 9/1/1
f 16/1/1 10/1/1 15/1/1
f 17/1/1 14/1/1 13/1/1
f 18/1/1 14/1/1 17/1/1
f 21/1/1 20/1/1 19/1/1
f 22/1/1 20/1/1 21/1/1
f 25/3/1 24/3/1 23/3/1
f 26/3/1 24/3/1 25/3/1
f 28/3/1 24/3/1 26/3/1
f 29/3/1 28/3/1 27/3/1
f 30/3/1 24/3/1 28/3/1
f 30/3/1 28/3/1 29/3/1
f 31/3/1 24/3/1 30/3/1
f 32/3/1 24/3/1 31/3/1
f 35/2/1 34/2/1 33/2/1
f 36/2/1 34/2/1 35/2/1
f 39/2/1 38/2/1 37/2/1
f 40/2/1 38/2/1 39/2/1
f 43/1/1 42/1/1 41/1/1
f 44/1/1 43/1/1 41/1/1
f 45/1/1 43/1/1 44/1/1
f 48/1/1 47/1/1 46/1/1
f 49/1/1 48/1/1 46/1/1
f 50/1/1 48/1/1 49/1/1
f 53/1/1 52/1/1 51/1/1
f 54/1/1 52/1/1 53/1/1
f 55/1/2 56/1/2 57/1/2
f 57/1/2 56/1/2 58/1/2
f 59/1/2 60/1/2 64/1/2
f 60/2/2 61/2/2 65/2/2
f 64/1/2 60/1/2 65/1/2
f 65/2/2 61/2/2 66/2/2
f 62/2/2 63/2/2 67/2/2
f 67/2/2 63/2/2 68/2/2
f 64/4/2 65/4/2 69/4/2
f 69/4/2 65/4/2 70/4/2
f 71/1/2 72/1/2 73/1/2
f 73/1/2 72/1/2 74/1/2
f 75/1/2 76/1/2 77/1/2
f 77/1/2 76/1/2 78/1/2
f 75/1/2 77/1/2 79/1/2
f 79/1/2 77/1/2 80/1/2
f 78/1/2 76/1/2 81/1/2
f 81/1/2 76/1/2 82/1/2
f 83/2/2 84/2/2 86/2/2
f 84/1/2 85/1/2 87/1/2
f 86/2/2 84/2/2 87/2/2
f 87/1/2 85/1/2 88/1/2
f 89/1/2 90/1/2 91/1/2
f 89/1/2 91/1/2 92/1/2
f 92/1/2 91/1/2 93/1/2
f 94/1/2 95/1/2 96/1/2
f 94/1/2 96/1/2 97/1/2
f 97/1/2 96/1/2 98/1/2
f 99/1/2 100/1/2 101/1/2
f 101/1/2 100/1/2 102/1/2
f 102/1/2 100/1/2 103/1/2
f 103/1/2 100/1/2 104/1/2
f 107/1/3 106/1/3 105/1/3
f 108/1/3 106/1/3 107/1/3
f 109/1/3 107/1/3 105/1/3
f 110/4/3 108/4/3 107/4/3
f 110/1/3 107/1/3 109/1/3
f 111/4/3 108/4/3 110/4/3
f 115/1/3 113/1/3 112/1/3
f 115/1/3 114/1/3 113/1/3
f 116/1/3 114/1/3 115/1/3
f 119/1/3 118/1/3 117/1/3
f 120/1/3 118/1/3 119/1/3
f 123/1/3 122/1/3 121/1/3
f 124/1/3 122/1/3 123/1/3
f 129/1/3 126/1/3 125/1/3
f 129/2/3 127/2/3 126/2/3
f 130/1/3 128/1/3 127/1/3
f 130/2/3 127/2/3 129/2/3
f 131/1/3 129/1/3 125/1/3
f 131/1/3 130/1/3 129/1/3
f 132/1/3 128/1/3 130/1/3
f 132/1/3 130/1/3 131/1/3
f 137/3/3 134/3/3 133/3/3
f 138/3/3 134/3/3 137/3/3
f 139/3/3 136/3/3 135/3/3
f 140/3/3 136/3/3 139/3/3
f 142/1/3 138/1/3 137/1/3
f 142/2/3 141/2/3 140/2/3
f 142/2/3 140/2/3 139/2/3
f 142/2/3 139/2/3 138/2/3
f 143/2/3 141/2/3 142/2/3
f 144/1/3 142/1/3 137/1/3
f 145/1/3 142/1/3 144/1/3
f 148/1/3 147/1/3 146/1/3
f 149/1/3 147/1/3 148/1/3
f 152/1/3 151/1/3 150/1/3
f 153/1/3 151/1/3 152/1/3
f 156/1/3 155/1/3 154/1/3
f 157/1/3 155/1/3 156/1/3
f 160/1/3 159/1/3 158/1/3
f 161/1/3 159/1/3 160/1/3
f 166/3/3 163/3/3 162/3/3
f 167/3/3 163/3/3 166/3/3
f 168/3/3 165/3/3 164/3/3
f 169/3/3 165/3/3 168/3/3
f 172/1/3 171/1/3 170/1/3
f 173/1/3 171/1/3 172/1/3
f 174/1/4 175/1/4 176/1/4
f 176/1/4 175/1/4 177/1/4
f 176/4/4 177/4/4 178/4/4
f 178/4/4 177/4/4 179/4/4
f 180/1/4 181/1/4 183/1/4
f 181/1/4 182/1/4 183/1/4
f 183/1/4 182/1/4 184/1/4
f 185/1/4 186/1/4 187/1/4
f 187/1/4 186/1/4 188/1/4
f 189/1/4 190/1/4 191/1/4
f 191/1/4 190/1/4 192/1/4
f 193/2/4 194/2/4 196/2/4
f 194/1/4 195/1/4 197/1/4
f 196/2/4 194/2/4 197/2/4
f 196/1/4 197/1/4 198/1/4
f 197/1/4 195/1/4 199/1/4
f 198/1/4 197/1/4 199/1/4
f 200/1/4 201/1/4 202/1/4
f 202/1/4 201/1/4 203/1/4
f 200/1/4 202/1/4 204/1/4
f 200/1/4 204/1/4 206/1/4
f 204/1/4 205/1/4 206/1/4
f 206/1/4 205/1/4 207/1/4
f 208/3/4 209/3/4 210/3/4
f 210/3/4 209/3/4 211/3/4
f 210/1/4 211/1/4 212/1/4
f 212/1/4 211/1/4 213/1/4
f 210/1/4 212/1/4 214/1/4
f 210/1/4 214/1/4 216/1/4
f 214/1/4 215/1/4 216/1/4
f 216/1/4 215/1/4 217/1/4
f 220/1/5 219/1/5 218/1/5
f 221/1/5 219/1/5 220/1/5
f 222/2/5 221/2/5 220/2/5
f 224/2/5 222/2/5 220/2/5
f 224/1/5 223/1/5 222/1/5
f 225/1/5 223/1/5 224/1/5
f 230/2/5 224/2/5 220/2/5
f 234/1/5 227/1/5 226/1/5
f 235/1/5 227/1/5 234/1/5
f 236/1/5 229/1/5 228/1/5
f 237/1/5 229/1/5 236/1/5
f 239/2/5 230/2/5 220/2/5
f 239/1/5 231/1/5 230/1/5
f 240/1/5 231/1/5 239/1/5
f 241/1/5 220/1/5 218/1/5
f 241/2/5 239/2/5 220/2/5
f 241/2/5 240/2/5 239/2/5
f 242/1/5 231/1/5 240/1/5
f 242/2/5 240/2/5 241/2/5
f 243/1/5 241/1/5 218/1/5
f 243/1/5 242/1/5 241/1/5
f 244/1/5 231/1/5 242/1/5
f 244/1/5 242/1/5 243/1/5
f 245/3/5 233/3/5 232/3/5
f 246/1/5 235/1/5 234/1/5
f 246/3/5 233/3/5 245/3/5
f 246/1/5 238/1/5 237/1/5
f 246/1/5 236/1/5 235/1/5
f 246/1/5 237/1/5 236/1/5
f 246/1/5 234/1/5 233/1/5
f 247/1/5 238/1/5 246/1/5
f 250/3/5 249/3/5 248/3/5
f 251/3/5 249/3/5 250/3/5
f 253/2/6 254/2/6 255/2/6
f 253/2/6 255/2/6 256/2/6
f 253/2/6 256/2/6 257/2/6
f 253/2/6 257/2/6 266/2/6
f 252/1/6 253/1/6 269/1/6
f 253/2/6 266/2/6 270/2/6
f 269/1/6 253/1/6 270/1/6
f 266/2/6 267/2/6 270/2/6
f 267/1/6 268/1/6 271/1/6
f 270/2/6 267/2/6 271/2/6
f 271/1/6 268/1/6 272/1/6
f 258/3/6 259/3/6 273/3/6
f 273/3/6 259/3/6 274/3/6
f 264/1/6 265/1/6 275/1/6
f 260/1/6 261/1/6 275/1/6
f 261/1/6 262/1/6 275/1/6
f 262/1/6 263/1/6 275/1/6
f 263/1/6 264/1/6 275/1/6
f 275/1/6 265/1/6 276/1/6
f 276/1/6 265/1/6 277/1/6
f 270/1/6 271/1/6 278/1/6
f 278/1/6 271/1/6 279/1/6
f 275/1/6 276/1/6 280/1/6
f 280/1/6 276/1/6 281/1/6
f 282/3/6 283/3/6 284/3/6
f 284/3/6 283/3/6 285/3/6
f 286/1/6 287/1/6 289/1/6
f 287/4/6 288/4/6 290/4/6
f 289/1/6 287/1/6 290/1/6
f 290/4/6 288/4/6 291/4/6
f 292/1/6 293/1/6 294/1/6
f 294/1/6 293/1/6 295/1/6
f 296/1/6 297/1/6 304/1/6
f 304/1/6 297/1/6 305/1/6
f 298/1/6 299/1/6 306/1/6
f 306/1/6 299/1/6 307/1/6
f 300/1/6 301/1/6 308/1/6
f 308/1/6 301/1/6 309/1/6
f 302/2/6 303/2/6 315/2/6
f 315/2/6 303/2/6 316/2/6
f 310/1/6 311/1/6 319/1/6
f 319/1/6 311/1/6 320/1/6
f 312/1/6 313/1/6 321/1/6
f 321/1/6 313/1/6 322/1/6
f 314/3/6 315/3/6 323/3/6
f 315/1/6 316/1/6 324/1/6
f 323/3/6 315/3/6 324/3/6
f 324/1/6 316/1/6 325/1/6
f 317/1/6 318/1/6 326/1/6
f 326/1/6 318/1/6 327/1/6
