# MagicaVoxel @ Ephtracy

# group
o CabinetDoor1

# material
mtllib Kitchen-12-CabinetDoor1.mtl
usemtl palette

# normals
vn 1 0 0
vn -1 0 0
vn 0 0 -1
vn 0 0 1
vn 0 -1 0
vn 0 1 0

# texcoords
vt 0.845703 0.5
vt 0.849609 0.5
vt 0.853516 0.5

# verts
v 2.5 0.1 1.7
v 2.5 0.1 2.2
v 2.5 0.2 1.8
v 2.5 0.2 2.2
v 2.5 0.4 2.1
v 2.5 0.4 2.2
v 2.5 0.5 2.1
v 2.5 0.5 2.2
v 2.5 0.6 1.8
v 2.5 0.6 2.2
v 2.5 0.7 1.7
v 2.5 0.7 2.2
v 2.4 0.1 1.7
v 2.4 0.1 2.2
v 2.4 0.2 1.8
v 2.4 0.2 2.2
v 2.4 0.4 2.1
v 2.4 0.4 2.2
v 2.4 0.5 2.1
v 2.4 0.5 2.2
v 2.4 0.6 1.8
v 2.4 0.6 2.2
v 2.4 0.7 1.7
v 2.4 0.7 2.2
v 2.5 0.1 1.7
v 2.5 0.7 1.7
v 2.4 0.1 1.7
v 2.4 0.7 1.7
v 2.5 0.1 2.2
v 2.5 0.2 2.2
v 2.5 0.4 2.2
v 2.5 0.5 2.2
v 2.5 0.6 2.2
v 2.5 0.7 2.2
v 2.4 0.1 2.2
v 2.4 0.2 2.2
v 2.4 0.4 2.2
v 2.4 0.5 2.2
v 2.4 0.6 2.2
v 2.4 0.7 2.2
v 2.5 0.1 1.7
v 2.4 0.1 1.7
v 2.5 0.1 2.2
v 2.4 0.1 2.2
v 2.5 0.7 1.7
v 2.4 0.7 1.7
v 2.5 0.7 2.2
v 2.4 0.7 2.2

# faces
f 3/1/1 2/1/1 1/1/1
f 4/1/1 2/1/1 3/1/1
f 5/2/1 4/2/1 3/2/1
f 6/2/1 4/2/1 5/2/1
f 7/2/1 5/2/1 3/2/1
f 7/3/1 6/3/1 5/3/1
f 8/3/1 6/3/1 7/3/1
f 9/1/1 3/1/1 1/1/1
f 9/2/1 7/2/1 3/2/1
f 9/2/1 8/2/1 7/2/1
f 10/2/1 8/2/1 9/2/1
f 11/1/1 9/1/1 1/1/1
f 11/1/1 10/1/1 9/1/1
f 12/1/1 10/1/1 11/1/1
f 13/1/2 14/1/2 15/1/2
f 15/1/2 14/1/2 16/1/2
f 15/2/2 16/2/2 17/2/2
f 17/2/2 16/2/2 18/2/2
f 15/2/2 17/2/2 19/2/2
f 17/3/2 18/3/2 19/3/2
f 19/3/2 18/3/2 20/3/2
f 13/1/2 15/1/2 21/1/2
f 15/2/2 19/2/2 21/2/2
f 19/2/2 20/2/2 21/2/2
f 21/2/2 20/2/2 22/2/2
f 13/1/2 21/1/2 23/1/2
f 21/1/2 22/1/2 23/1/2
f 23/1/2 22/1/2 24/1/2
f 27/1/3 26/1/3 25/1/3
f 28/1/3 26/1/3 27/1/3
f 29/1/4 30/1/4 35/1/4
f 30/2/4 31/2/4 36/2/4
f 35/1/4 30/1/4 36/1/4
f 31/3/4 32/3/4 37/3/4
f 36/2/4 31/2/4 37/2/4
f 32/2/4 33/2/4 38/2/4
f 37/3/4 32/3/4 38/3/4
f 33/1/4 34/1/4 39/1/4
f 38/2/4 33/2/4 39/2/4
f 39/1/4 34/1/4 40/1/4
f 43/1/5 42/1/5 41/1/5
f 44/1/5 42/1/5 43/1/5
f 45/1/6 46/1/6 47/1/6
f 47/1/6 46/1/6 48/1/6
