# MagicaVoxel @ Ephtracy

# group
o Furnace

# material
mtllib Kitchen-5-Furnace.mtl
usemtl palette

# normals
vn 1 0 0
vn -1 0 0
vn 0 0 -1
vn 0 0 1
vn 0 -1 0
vn 0 1 0

# texcoords
vt 0.814453 0.5
vt 0.818359 0.5
vt 0.822266 0.5
vt 0.826172 0.5
vt 0.830078 0.5

# verts
v -2.1 0.1 3.1
v -2.1 0.1 3.8
v -2.1 0.2 3.2
v -2.1 0.2 3.7
v -2.1 0.7 3.2
v -2.1 0.7 3.7
v -2.1 0.8 3.1
v -2.1 0.8 3.8
v -2.6 0.4 3.1
v -2.6 0.4 3.2
v -2.6 0.5 3.1
v -2.6 0.5 3.2
v -2.7 0.3 3.1
v -2.7 0.3 3.2
v -2.7 0.4 3.1
v -2.7 0.4 3.2
v -2.9 0.2 3.7
v -2.9 0.2 3.8
v -2.9 0.7 3.7
v -2.9 0.7 3.8
v -2.2 0.2 3.7
v -2.2 0.2 3.8
v -2.2 0.7 3.7
v -2.2 0.7 3.8
v -2.4 0.3 3.1
v -2.4 0.3 3.2
v -2.4 0.5 3.1
v -2.4 0.5 3.2
v -3 0.1 3.1
v -3 0.1 3.8
v -3 0.2 3.2
v -3 0.2 3.7
v -3 0.7 3.2
v -3 0.7 3.7
v -3 0.8 3.1
v -3 0.8 3.8
v -2.1 0.1 3.1
v -2.1 0.8 3.1
v -2.2 0.2 3.1
v -2.2 0.3 3.1
v -2.2 0.4 3.1
v -2.2 0.5 3.1
v -2.2 0.7 3.1
v -2.3 0.3 3.1
v -2.3 0.4 3.1
v -2.3 0.5 3.1
v -2.3 0.6 3.1
v -2.3 0.7 3.1
v -2.4 0.2 3.1
v -2.4 0.3 3.1
v -2.4 0.5 3.1
v -2.4 0.6 3.1
v -2.4 0.7 3.1
v -2.5 0.2 3.1
v -2.5 0.3 3.1
v -2.5 0.6 3.1
v -2.5 0.7 3.1
v -2.6 0.2 3.1
v -2.6 0.3 3.1
v -2.6 0.4 3.1
v -2.6 0.5 3.1
v -2.6 0.6 3.1
v -2.6 0.7 3.1
v -2.7 0.2 3.1
v -2.7 0.3 3.1
v -2.7 0.4 3.1
v -2.7 0.5 3.1
v -2.7 0.6 3.1
v -2.8 0.3 3.1
v -2.8 0.4 3.1
v -2.8 0.5 3.1
v -2.8 0.6 3.1
v -2.8 0.7 3.1
v -2.9 0.2 3.1
v -2.9 0.3 3.1
v -2.9 0.4 3.1
v -2.9 0.5 3.1
v -2.9 0.6 3.1
v -2.9 0.7 3.1
v -3 0.1 3.1
v -3 0.8 3.1
v -2.1 0.2 3.7
v -2.1 0.7 3.7
v -2.2 0.2 3.7
v -2.2 0.7 3.7
v -2.9 0.2 3.7
v -2.9 0.7 3.7
v -3 0.2 3.7
v -3 0.7 3.7
v -2.1 0.2 3.2
v -2.1 0.7 3.2
v -2.2 0.2 3.2
v -2.2 0.3 3.2
v -2.2 0.4 3.2
v -2.2 0.5 3.2
v -2.2 0.7 3.2
v -2.3 0.3 3.2
v -2.3 0.4 3.2
v -2.3 0.5 3.2
v -2.3 0.6 3.2
v -2.3 0.7 3.2
v -2.4 0.2 3.2
v -2.4 0.3 3.2
v -2.4 0.5 3.2
v -2.4 0.6 3.2
v -2.4 0.7 3.2
v -2.5 0.2 3.2
v -2.5 0.3 3.2
v -2.5 0.6 3.2
v -2.5 0.7 3.2
v -2.6 0.2 3.2
v -2.6 0.3 3.2
v -2.6 0.4 3.2
v -2.6 0.5 3.2
v -2.6 0.6 3.2
v -2.6 0.7 3.2
v -2.7 0.2 3.2
v -2.7 0.3 3.2
v -2.7 0.4 3.2
v -2.7 0.5 3.2
v -2.7 0.6 3.2
v -2.8 0.3 3.2
v -2.8 0.4 3.2
v -2.8 0.5 3.2
v -2.8 0.6 3.2
v -2.8 0.7 3.2
v -2.9 0.2 3.2
v -2.9 0.3 3.2
v -2.9 0.4 3.2
v -2.9 0.5 3.2
v -2.9 0.6 3.2
v -2.9 0.7 3.2
v -3 0.2 3.2
v -3 0.7 3.2
v -2.1 0.1 3.8
v -2.1 0.8 3.8
v -2.2 0.2 3.8
v -2.2 0.7 3.8
v -2.9 0.2 3.8
v -2.9 0.7 3.8
v -3 0.1 3.8
v -3 0.8 3.8
v -2.1 0.1 3.1
v -3 0.1 3.1
v -2.2 0.1 3.2
v -2.9 0.1 3.2
v -2.2 0.1 3.7
v -2.9 0.1 3.7
v -2.1 0.1 3.8
v -3 0.1 3.8
v -2.6 0.4 3.1
v -2.7 0.4 3.1
v -2.6 0.4 3.2
v -2.7 0.4 3.2
v -2.4 0.5 3.1
v -2.6 0.5 3.1
v -2.4 0.5 3.2
v -2.6 0.5 3.2
v -2.1 0.7 3.2
v -2.2 0.7 3.2
v -2.3 0.7 3.2
v -2.4 0.7 3.2
v -2.5 0.7 3.2
v -2.6 0.7 3.2
v -2.8 0.7 3.2
v -2.9 0.7 3.2
v -3 0.7 3.2
v -2.2 0.7 3.3
v -2.3 0.7 3.3
v -2.4 0.7 3.3
v -2.5 0.7 3.3
v -2.6 0.7 3.3
v -2.8 0.7 3.3
v -2.2 0.7 3.4
v -2.3 0.7 3.4
v -2.4 0.7 3.4
v -2.6 0.7 3.4
v -2.7 0.7 3.4
v -2.8 0.7 3.4
v -2.9 0.7 3.4
v -2.2 0.7 3.5
v -2.3 0.7 3.5
v -2.4 0.7 3.5
v -2.5 0.7 3.5
v -2.6 0.7 3.5
v -2.7 0.7 3.5
v -2.8 0.7 3.5
v -2.9 0.7 3.5
v -2.2 0.7 3.6
v -2.3 0.7 3.6
v -2.4 0.7 3.6
v -2.5 0.7 3.6
v -2.6 0.7 3.6
v -2.7 0.7 3.6
v -2.8 0.7 3.6
v -2.1 0.7 3.7
v -2.2 0.7 3.7
v -2.3 0.7 3.7
v -2.4 0.7 3.7
v -2.5 0.7 3.7
v -2.7 0.7 3.7
v -2.8 0.7 3.7
v -2.9 0.7 3.7
v -3 0.7 3.7
v -2.2 0.7 3.8
v -2.9 0.7 3.8
v -2.1 0.2 3.2
v -2.2 0.2 3.2
v -2.4 0.2 3.2
v -2.5 0.2 3.2
v -2.6 0.2 3.2
v -2.7 0.2 3.2
v -2.9 0.2 3.2
v -3 0.2 3.2
v -2.1 0.2 3.7
v -2.2 0.2 3.7
v -2.9 0.2 3.7
v -3 0.2 3.7
v -2.2 0.2 3.8
v -2.9 0.2 3.8
v -2.4 0.3 3.1
v -2.5 0.3 3.1
v -2.6 0.3 3.1
v -2.7 0.3 3.1
v -2.4 0.3 3.2
v -2.5 0.3 3.2
v -2.6 0.3 3.2
v -2.7 0.3 3.2
v -2.1 0.8 3.1
v -3 0.8 3.1
v -2.2 0.8 3.2
v -2.3 0.8 3.2
v -2.4 0.8 3.2
v -2.5 0.8 3.2
v -2.6 0.8 3.2
v -2.8 0.8 3.2
v -2.9 0.8 3.2
v -2.2 0.8 3.3
v -2.3 0.8 3.3
v -2.4 0.8 3.3
v -2.5 0.8 3.3
v -2.6 0.8 3.3
v -2.8 0.8 3.3
v -2.2 0.8 3.4
v -2.3 0.8 3.4
v -2.4 0.8 3.4
v -2.6 0.8 3.4
v -2.7 0.8 3.4
v -2.8 0.8 3.4
v -2.9 0.8 3.4
v -2.2 0.8 3.5
v -2.3 0.8 3.5
v -2.4 0.8 3.5
v -2.5 0.8 3.5
v -2.6 0.8 3.5
v -2.7 0.8 3.5
v -2.8 0.8 3.5
v -2.9 0.8 3.5
v -2.2 0.8 3.6
v -2.3 0.8 3.6
v -2.4 0.8 3.6
v -2.5 0.8 3.6
v -2.6 0.8 3.6
v -2.7 0.8 3.6
v -2.8 0.8 3.6
v -2.2 0.8 3.7
v -2.3 0.8 3.7
v -2.4 0.8 3.7
v -2.5 0.8 3.7
v -2.7 0.8 3.7
v -2.8 0.8 3.7
v -2.9 0.8 3.7
v -2.1 0.8 3.8
v -3 0.8 3.8

# faces
f 3/1/1 2/1/1 1/1/1
f 4/1/1 2/1/1 3/1/1
f 5/1/1 3/1/1 1/1/1
f 6/1/1 2/1/1 4/1/1
f 7/1/1 5/1/1 1/1/1
f 7/1/1 6/1/1 5/1/1
f 8/1/1 2/1/1 6/1/1
f 8/1/1 6/1/1 7/1/1
f 11/5/1 10/5/1 9/5/1
f 12/5/1 10/5/1 11/5/1
f 15/5/1 14/5/1 13/5/1
f 16/5/1 14/5/1 15/5/1
f 19/1/1 18/1/1 17/1/1
f 20/1/1 18/1/1 19/1/1
f 21/1/2 22/1/2 23/1/2
f 23/1/2 22/1/2 24/1/2
f 25/5/2 26/5/2 27/5/2
f 27/5/2 26/5/2 28/5/2
f 29/1/2 30/1/2 31/1/2
f 31/1/2 30/1/2 32/1/2
f 29/1/2 31/1/2 33/1/2
f 32/1/2 30/1/2 34/1/2
f 29/1/2 33/1/2 35/1/2
f 33/1/2 34/1/2 35/1/2
f 34/1/2 30/1/2 36/1/2
f 35/1/2 34/1/2 36/1/2
f 39/1/3 38/1/3 37/1/3
f 40/1/3 38/1/3 39/1/3
f 41/1/3 38/1/3 40/1/3
f 42/1/3 38/1/3 41/1/3
f 43/1/3 38/1/3 42/1/3
f 44/4/3 40/4/3 39/4/3
f 44/3/3 41/3/3 40/3/3
f 45/2/3 42/2/3 41/2/3
f 45/3/3 41/3/3 44/3/3
f 46/4/3 43/4/3 42/4/3
f 46/2/3 42/2/3 45/2/3
f 47/4/3 43/4/3 46/4/3
f 48/1/3 38/1/3 43/1/3
f 48/4/3 43/4/3 47/4/3
f 49/1/3 39/1/3 37/1/3
f 49/4/3 44/4/3 39/4/3
f 50/5/3 45/5/3 44/5/3
f 50/4/3 44/4/3 49/4/3
f 50/5/3 46/5/3 45/5/3
f 51/2/3 47/2/3 46/2/3
f 51/5/3 46/5/3 50/5/3
f 52/3/3 48/3/3 47/3/3
f 52/2/3 47/2/3 51/2/3
f 53/1/3 38/1/3 48/1/3
f 53/3/3 48/3/3 52/3/3
f 54/2/3 50/2/3 49/2/3
f 54/1/3 49/1/3 37/1/3
f 55/2/3 50/2/3 54/2/3
f 56/5/3 52/5/3 51/5/3
f 56/4/3 53/4/3 52/4/3
f 57/1/3 38/1/3 53/1/3
f 57/4/3 53/4/3 56/4/3
f 58/3/3 55/3/3 54/3/3
f 58/1/3 54/1/3 37/1/3
f 59/3/3 55/3/3 58/3/3
f 61/5/3 56/5/3 51/5/3
f 62/3/3 57/3/3 56/3/3
f 62/5/3 56/5/3 61/5/3
f 63/1/3 38/1/3 57/1/3
f 63/3/3 57/3/3 62/3/3
f 64/2/3 59/2/3 58/2/3
f 64/1/3 58/1/3 37/1/3
f 65/2/3 59/2/3 64/2/3
f 66/5/3 62/5/3 61/5/3
f 66/5/3 61/5/3 60/5/3
f 67/5/3 62/5/3 66/5/3
f 68/2/3 63/2/3 62/2/3
f 68/5/3 62/5/3 67/5/3
f 69/4/3 65/4/3 64/4/3
f 69/5/3 67/5/3 66/5/3
f 69/5/3 66/5/3 65/5/3
f 70/5/3 67/5/3 69/5/3
f 71/3/3 68/3/3 67/3/3
f 71/5/3 67/5/3 70/5/3
f 72/2/3 63/2/3 68/2/3
f 72/3/3 68/3/3 71/3/3
f 73/1/3 38/1/3 63/1/3
f 73/2/3 63/2/3 72/2/3
f 74/1/3 64/1/3 37/1/3
f 74/4/3 69/4/3 64/4/3
f 75/2/3 70/2/3 69/2/3
f 75/4/3 69/4/3 74/4/3
f 76/4/3 71/4/3 70/4/3
f 76/2/3 70/2/3 75/2/3
f 77/2/3 72/2/3 71/2/3
f 77/4/3 71/4/3 76/4/3
f 78/4/3 73/4/3 72/4/3
f 78/2/3 72/2/3 77/2/3
f 79/1/3 38/1/3 73/1/3
f 79/4/3 73/4/3 78/4/3
f 80/1/3 75/1/3 74/1/3
f 80/1/3 76/1/3 75/1/3
f 80/1/3 79/1/3 78/1/3
f 80/1/3 77/1/3 76/1/3
f 80/1/3 78/1/3 77/1/3
f 80/1/3 74/1/3 37/1/3
f 81/1/3 38/1/3 79/1/3
f 81/1/3 79/1/3 80/1/3
f 84/1/3 83/1/3 82/1/3
f 85/1/3 83/1/3 84/1/3
f 88/1/3 87/1/3 86/1/3
f 89/1/3 87/1/3 88/1/3
f 90/1/4 91/1/4 92/1/4
f 92/1/4 91/1/4 93/1/4
f 93/1/4 91/1/4 94/1/4
f 94/1/4 91/1/4 95/1/4
f 95/1/4 91/1/4 96/1/4
f 92/4/4 93/4/4 97/4/4
f 93/3/4 94/3/4 97/3/4
f 94/2/4 95/2/4 98/2/4
f 97/3/4 94/3/4 98/3/4
f 95/4/4 96/4/4 99/4/4
f 98/2/4 95/2/4 99/2/4
f 99/4/4 96/4/4 100/4/4
f 100/4/4 96/4/4 101/4/4
f 92/4/4 97/4/4 102/4/4
f 97/5/4 98/5/4 103/5/4
f 102/4/4 97/4/4 103/4/4
f 98/5/4 99/5/4 103/5/4
f 99/2/4 100/2/4 104/2/4
f 103/5/4 99/5/4 104/5/4
f 100/3/4 101/3/4 105/3/4
f 104/2/4 100/2/4 105/2/4
f 105/3/4 101/3/4 106/3/4
f 102/2/4 103/2/4 107/2/4
f 107/2/4 103/2/4 108/2/4
f 105/4/4 106/4/4 109/4/4
f 104/5/4 105/5/4 109/5/4
f 109/4/4 106/4/4 110/4/4
f 107/3/4 108/3/4 111/3/4
f 111/3/4 108/3/4 112/3/4
f 104/5/4 109/5/4 114/5/4
f 109/3/4 110/3/4 115/3/4
f 114/5/4 109/5/4 115/5/4
f 115/3/4 110/3/4 116/3/4
f 111/2/4 112/2/4 117/2/4
f 117/2/4 112/2/4 118/2/4
f 113/5/4 114/5/4 119/5/4
f 114/5/4 115/5/4 119/5/4
f 119/5/4 115/5/4 120/5/4
f 115/2/4 116/2/4 121/2/4
f 120/5/4 115/5/4 121/5/4
f 117/4/4 118/4/4 122/4/4
f 119/5/4 120/5/4 122/5/4
f 118/5/4 119/5/4 122/5/4
f 122/5/4 120/5/4 123/5/4
f 120/3/4 121/3/4 124/3/4
f 123/5/4 120/5/4 124/5/4
f 121/2/4 116/2/4 125/2/4
f 124/3/4 121/3/4 125/3/4
f 125/2/4 116/2/4 126/2/4
f 117/4/4 122/4/4 127/4/4
f 122/2/4 123/2/4 128/2/4
f 127/4/4 122/4/4 128/4/4
f 123/4/4 124/4/4 129/4/4
f 128/2/4 123/2/4 129/2/4
f 124/2/4 125/2/4 130/2/4
f 129/4/4 124/4/4 130/4/4
f 125/4/4 126/4/4 131/4/4
f 130/2/4 125/2/4 131/2/4
f 131/4/4 126/4/4 132/4/4
f 127/1/4 128/1/4 133/1/4
f 128/1/4 129/1/4 133/1/4
f 131/1/4 132/1/4 133/1/4
f 130/1/4 131/1/4 133/1/4
f 129/1/4 130/1/4 133/1/4
f 133/1/4 132/1/4 134/1/4
f 135/1/4 136/1/4 137/1/4
f 137/1/4 136/1/4 138/1/4
f 135/1/4 137/1/4 139/1/4
f 138/1/4 136/1/4 140/1/4
f 135/1/4 139/1/4 141/1/4
f 139/1/4 140/1/4 141/1/4
f 140/1/4 136/1/4 142/1/4
f 141/1/4 140/1/4 142/1/4
f 145/1/5 144/1/5 143/1/5
f 146/1/5 144/1/5 145/1/5
f 147/1/5 145/1/5 143/1/5
f 147/2/5 146/2/5 145/2/5
f 148/1/5 144/1/5 146/1/5
f 148/2/5 146/2/5 147/2/5
f 149/1/5 147/1/5 143/1/5
f 149/1/5 148/1/5 147/1/5
f 150/1/5 144/1/5 148/1/5
f 150/1/5 148/1/5 149/1/5
f 153/5/5 152/5/5 151/5/5
f 154/5/5 152/5/5 153/5/5
f 157/5/5 156/5/5 155/5/5
f 158/5/5 156/5/5 157/5/5
f 168/1/5 160/1/5 159/1/5
f 168/4/5 161/4/5 160/4/5
f 169/2/5 162/2/5 161/2/5
f 169/4/5 161/4/5 168/4/5
f 170/3/5 163/3/5 162/3/5
f 170/2/5 162/2/5 169/2/5
f 171/4/5 164/4/5 163/4/5
f 171/3/5 163/3/5 170/3/5
f 172/3/5 165/3/5 164/3/5
f 172/4/5 164/4/5 171/4/5
f 173/2/5 166/2/5 165/2/5
f 173/3/5 165/3/5 172/3/5
f 174/1/5 168/1/5 159/1/5
f 174/3/5 169/3/5 168/3/5
f 175/4/5 170/4/5 169/4/5
f 175/3/5 169/3/5 174/3/5
f 175/4/5 171/4/5 170/4/5
f 176/4/5 171/4/5 175/4/5
f 177/2/5 172/2/5 171/2/5
f 177/4/5 173/4/5 172/4/5
f 178/4/5 173/4/5 177/4/5
f 179/2/5 166/2/5 173/2/5
f 179/4/5 173/4/5 178/4/5
f 180/1/5 167/1/5 166/1/5
f 180/2/5 166/2/5 179/2/5
f 181/1/5 174/1/5 159/1/5
f 181/4/5 175/4/5 174/4/5
f 182/2/5 176/2/5 175/2/5
f 182/4/5 175/4/5 181/4/5
f 183/4/5 171/4/5 176/4/5
f 183/2/5 176/2/5 182/2/5
f 184/2/5 177/2/5 171/2/5
f 184/4/5 171/4/5 183/4/5
f 185/3/5 178/3/5 177/3/5
f 185/2/5 177/2/5 184/2/5
f 186/2/5 179/2/5 178/2/5
f 186/3/5 178/3/5 185/3/5
f 187/3/5 180/3/5 179/3/5
f 187/2/5 179/2/5 186/2/5
f 188/1/5 167/1/5 180/1/5
f 188/3/5 180/3/5 187/3/5
f 189/3/5 182/3/5 181/3/5
f 189/1/5 181/1/5 159/1/5
f 190/4/5 183/4/5 182/4/5
f 190/3/5 182/3/5 189/3/5
f 191/2/5 184/2/5 183/2/5
f 191/4/5 183/4/5 190/4/5
f 192/3/5 185/3/5 184/3/5
f 192/2/5 184/2/5 191/2/5
f 193/2/5 186/2/5 185/2/5
f 193/3/5 185/3/5 192/3/5
f 194/4/5 188/4/5 187/4/5
f 194/2/5 186/2/5 193/2/5
f 194/4/5 187/4/5 186/4/5
f 195/4/5 188/4/5 194/4/5
f 196/1/5 189/1/5 159/1/5
f 197/4/5 190/4/5 189/4/5
f 197/1/5 189/1/5 196/1/5
f 198/3/5 191/3/5 190/3/5
f 198/4/5 190/4/5 197/4/5
f 199/2/5 192/2/5 191/2/5
f 199/3/5 191/3/5 198/3/5
f 200/4/5 193/4/5 192/4/5
f 200/2/5 192/2/5 199/2/5
f 200/4/5 194/4/5 193/4/5
f 201/3/5 195/3/5 194/3/5
f 201/4/5 194/4/5 200/4/5
f 202/4/5 188/4/5 195/4/5
f 202/3/5 195/3/5 201/3/5
f 203/1/5 167/1/5 188/1/5
f 203/4/5 188/4/5 202/4/5
f 204/1/5 167/1/5 203/1/5
f 205/1/5 202/1/5 201/1/5
f 205/1/5 203/1/5 202/1/5
f 205/1/5 200/1/5 199/1/5
f 205/1/5 198/1/5 197/1/5
f 205/1/5 201/1/5 200/1/5
f 205/1/5 199/1/5 198/1/5
f 206/1/5 203/1/5 205/1/5
f 207/1/6 208/1/6 215/1/6
f 208/2/6 209/2/6 216/2/6
f 215/1/6 208/1/6 216/1/6
f 209/2/6 210/2/6 216/2/6
f 212/2/6 213/2/6 216/2/6
f 211/2/6 212/2/6 216/2/6
f 210/2/6 211/2/6 216/2/6
f 213/1/6 214/1/6 217/1/6
f 216/2/6 213/2/6 217/2/6
f 217/1/6 214/1/6 218/1/6
f 216/1/6 217/1/6 219/1/6
f 219/1/6 217/1/6 220/1/6
f 221/2/6 222/2/6 225/2/6
f 222/3/6 223/3/6 226/3/6
f 225/2/6 222/2/6 226/2/6
f 223/2/6 224/2/6 227/2/6
f 226/3/6 223/3/6 227/3/6
f 227/2/6 224/2/6 228/2/6
f 229/1/6 230/1/6 231/1/6
f 231/1/6 230/1/6 232/1/6
f 232/1/6 230/1/6 233/1/6
f 233/1/6 230/1/6 234/1/6
f 234/1/6 230/1/6 235/1/6
f 235/1/6 230/1/6 236/1/6
f 236/1/6 230/1/6 237/1/6
f 229/1/6 231/1/6 238/1/6
f 231/4/6 232/4/6 238/4/6
f 232/2/6 233/2/6 239/2/6
f 238/4/6 232/4/6 239/4/6
f 233/3/6 234/3/6 240/3/6
f 239/2/6 233/2/6 240/2/6
f 234/4/6 235/4/6 241/4/6
f 240/3/6 234/3/6 241/3/6
f 235/3/6 236/3/6 242/3/6
f 241/4/6 235/4/6 242/4/6
f 236/2/6 237/2/6 243/2/6
f 242/3/6 236/3/6 243/3/6
f 229/1/6 238/1/6 244/1/6
f 238/3/6 239/3/6 244/3/6
f 239/4/6 240/4/6 245/4/6
f 244/3/6 239/3/6 245/3/6
f 240/4/6 241/4/6 245/4/6
f 245/4/6 241/4/6 246/4/6
f 241/2/6 242/2/6 247/2/6
f 242/4/6 243/4/6 247/4/6
f 247/4/6 243/4/6 248/4/6
f 243/2/6 237/2/6 249/2/6
f 248/4/6 243/4/6 249/4/6
f 237/1/6 230/1/6 250/1/6
f 249/2/6 237/2/6 250/2/6
f 229/1/6 244/1/6 251/1/6
f 244/4/6 245/4/6 251/4/6
f 245/2/6 246/2/6 252/2/6
f 251/4/6 245/4/6 252/4/6
f 246/4/6 241/4/6 253/4/6
f 252/2/6 246/2/6 253/2/6
f 241/2/6 247/2/6 254/2/6
f 253/4/6 241/4/6 254/4/6
f 247/3/6 248/3/6 255/3/6
f 254/2/6 247/2/6 255/2/6
f 248/2/6 249/2/6 256/2/6
f 255/3/6 248/3/6 256/3/6
f 249/3/6 250/3/6 257/3/6
f 256/2/6 249/2/6 257/2/6
f 250/1/6 230/1/6 258/1/6
f 257/3/6 250/3/6 258/3/6
f 251/3/6 252/3/6 259/3/6
f 229/1/6 251/1/6 259/1/6
f 252/4/6 253/4/6 260/4/6
f 259/3/6 252/3/6 260/3/6
f 253/2/6 254/2/6 261/2/6
f 260/4/6 253/4/6 261/4/6
f 254/3/6 255/3/6 262/3/6
f 261/2/6 254/2/6 262/2/6
f 255/2/6 256/2/6 263/2/6
f 262/3/6 255/3/6 263/3/6
f 257/4/6 258/4/6 264/4/6
f 263/2/6 256/2/6 264/2/6
f 256/4/6 257/4/6 264/4/6
f 264/4/6 258/4/6 265/4/6
f 259/4/6 260/4/6 266/4/6
f 229/1/6 259/1/6 266/1/6
f 260/3/6 261/3/6 267/3/6
f 266/4/6 260/4/6 267/4/6
f 261/2/6 262/2/6 268/2/6
f 267/3/6 261/3/6 268/3/6
f 262/4/6 263/4/6 269/4/6
f 268/2/6 262/2/6 269/2/6
f 263/4/6 264/4/6 269/4/6
f 264/3/6 265/3/6 270/3/6
f 269/4/6 264/4/6 270/4/6
f 265/4/6 258/4/6 271/4/6
f 270/3/6 265/3/6 271/3/6
f 258/1/6 230/1/6 272/1/6
f 271/4/6 258/4/6 272/4/6
f 229/1/6 266/1/6 273/1/6
f 270/1/6 271/1/6 273/1/6
f 271/1/6 272/1/6 273/1/6
f 266/1/6 267/1/6 273/1/6
f 268/1/6 269/1/6 273/1/6
f 267/1/6 268/1/6 273/1/6
f 269/1/6 270/1/6 273/1/6
f 272/1/6 230/1/6 274/1/6
f 273/1/6 272/1/6 274/1/6
