# MagicaVoxel @ Ephtracy

# group
o CabinetDoor5

# material
mtllib Kitchen-8-CabinetDoor5.mtl
usemtl palette

# normals
vn 1 0 0
vn -1 0 0
vn 0 0 -1
vn 0 0 1
vn 0 -1 0
vn 0 1 0

# texcoords
vt 0.845703 0.5
vt 0.849609 0.5
vt 0.853516 0.5

# verts
v -0.6 0.1 3.2
v -0.6 0.1 3.3
v -0.6 0.7 3.2
v -0.6 0.7 3.3
v -1.3 0.1 3.2
v -1.3 0.1 3.3
v -1.3 0.2 3.2
v -1.3 0.2 3.3
v -1.3 0.3 3.2
v -1.3 0.3 3.3
v -1.3 0.4 3.2
v -1.3 0.4 3.3
v -1.3 0.6 3.2
v -1.3 0.6 3.3
v -1.3 0.7 3.2
v -1.3 0.7 3.3
v -0.6 0.1 3.2
v -0.6 0.7 3.2
v -0.7 0.2 3.2
v -0.7 0.6 3.2
v -1.2 0.3 3.2
v -1.2 0.4 3.2
v -1.3 0.1 3.2
v -1.3 0.2 3.2
v -1.3 0.3 3.2
v -1.3 0.4 3.2
v -1.3 0.6 3.2
v -1.3 0.7 3.2
v -0.6 0.1 3.3
v -0.6 0.7 3.3
v -0.7 0.2 3.3
v -0.7 0.6 3.3
v -1.2 0.3 3.3
v -1.2 0.4 3.3
v -1.3 0.1 3.3
v -1.3 0.2 3.3
v -1.3 0.3 3.3
v -1.3 0.4 3.3
v -1.3 0.6 3.3
v -1.3 0.7 3.3
v -0.6 0.1 3.2
v -1.3 0.1 3.2
v -0.6 0.1 3.3
v -1.3 0.1 3.3
v -0.6 0.7 3.2
v -1.3 0.7 3.2
v -0.6 0.7 3.3
v -1.3 0.7 3.3

# faces
f 3/1/1 2/1/1 1/1/1
f 4/1/1 2/1/1 3/1/1
f 5/1/2 6/1/2 7/1/2
f 7/1/2 6/1/2 8/1/2
f 7/2/2 8/2/2 9/2/2
f 9/2/2 8/2/2 10/2/2
f 9/3/2 10/3/2 11/3/2
f 11/3/2 10/3/2 12/3/2
f 11/2/2 12/2/2 13/2/2
f 13/2/2 12/2/2 14/2/2
f 13/1/2 14/1/2 15/1/2
f 15/1/2 14/1/2 16/1/2
f 19/1/3 18/1/3 17/1/3
f 20/1/3 18/1/3 19/1/3
f 21/2/3 20/2/3 19/2/3
f 22/2/3 20/2/3 21/2/3
f 23/1/3 19/1/3 17/1/3
f 24/2/3 21/2/3 19/2/3
f 24/1/3 19/1/3 23/1/3
f 25/3/3 22/3/3 21/3/3
f 25/2/3 21/2/3 24/2/3
f 26/2/3 20/2/3 22/2/3
f 26/3/3 22/3/3 25/3/3
f 27/1/3 18/1/3 20/1/3
f 27/2/3 20/2/3 26/2/3
f 28/1/3 18/1/3 27/1/3
f 29/1/4 30/1/4 31/1/4
f 31/1/4 30/1/4 32/1/4
f 31/2/4 32/2/4 33/2/4
f 33/2/4 32/2/4 34/2/4
f 29/1/4 31/1/4 35/1/4
f 31/2/4 33/2/4 36/2/4
f 35/1/4 31/1/4 36/1/4
f 33/3/4 34/3/4 37/3/4
f 36/2/4 33/2/4 37/2/4
f 34/2/4 32/2/4 38/2/4
f 37/3/4 34/3/4 38/3/4
f 32/1/4 30/1/4 39/1/4
f 38/2/4 32/2/4 39/2/4
f 39/1/4 30/1/4 40/1/4
f 43/1/5 42/1/5 41/1/5
f 44/1/5 42/1/5 43/1/5
f 45/1/6 46/1/6 47/1/6
f 47/1/6 46/1/6 48/1/6
