# MagicaVoxel @ Ephtracy

# group
o Walls

# material
mtllib Kitchen-19-Walls.mtl
usemtl palette

# normals
vn 1 0 0
vn -1 0 0
vn 0 0 -1
vn 0 0 1
vn 0 -1 0
vn 0 1 0

# texcoords
vt 0.658203 0.5
vt 0.970703 0.5
vt 0.974609 0.5

# verts
v 3.1 0.1 -1.1
v 3.1 0.1 -0.6
v 3.1 0.1 -0.5
v 3.1 0.1 1.2
v 3.1 0.1 1.3
v 3.1 0.1 3.7
v 3.1 0.1 3.9
v 3.1 3.1 -0.5
v 3.1 3.1 1.2
v 3.1 3.2 -0.6
v 3.1 3.2 1.3
v 3.1 6.2 -1.1
v 3.1 6.2 3.7
v 3.1 6.2 3.9
v -1.3 1.2 3.8
v -1.3 1.2 3.9
v -1.3 2.3 3.8
v -1.3 2.3 3.9
v -3 0.1 -1.1
v -3 0.1 3.7
v -3 0.1 3.8
v -3 6.2 -1.1
v -3 6.2 3.7
v -3 6.2 3.8
v 3 0.1 -1.1
v 3 0.1 -0.6
v 3 0.1 1.3
v 3 0.1 3.7
v 3 0.1 3.8
v 3 3.2 -0.6
v 3 3.2 1.3
v 3 6.2 -1.1
v 3 6.2 3.7
v 3 6.2 3.8
v 2.9 0.1 -0.6
v 2.9 0.1 -0.5
v 2.9 0.1 1.2
v 2.9 0.1 1.3
v 2.9 3.1 -0.5
v 2.9 3.1 1.2
v 2.9 3.2 -0.6
v 2.9 3.2 1.3
v 0.9 1.2 3.8
v 0.9 1.2 3.9
v 0.9 2.3 3.8
v 0.9 2.3 3.9
v -3.1 0.1 -1.1
v -3.1 0.1 3.7
v -3.1 0.1 3.9
v -3.1 6.2 -1.1
v -3.1 6.2 3.7
v -3.1 6.2 3.9
v 3.1 0.1 -1.1
v 3.1 6.2 -1.1
v 3 0.1 -1.1
v 3 6.2 -1.1
v -3 0.1 -1.1
v -3 6.2 -1.1
v -3.1 0.1 -1.1
v -3.1 6.2 -1.1
v 3 0.1 -0.6
v 3 3.2 -0.6
v 2.9 0.1 -0.6
v 2.9 3.2 -0.6
v 3.1 0.1 1.2
v 3.1 3.1 1.2
v 2.9 0.1 1.2
v 2.9 3.1 1.2
v 3 0.1 3.8
v 3 6.2 3.8
v 2.9 0.1 3.8
v 2.9 6.2 3.8
v 0.9 1.2 3.8
v 0.9 2.3 3.8
v -1.3 1.2 3.8
v -1.3 2.3 3.8
v -2.9 0.1 3.8
v -2.9 6.2 3.8
v -3 0.1 3.8
v -3 6.2 3.8
v 3.1 0.1 -0.5
v 3.1 3.1 -0.5
v 2.9 0.1 -0.5
v 2.9 3.1 -0.5
v 3 0.1 1.3
v 3 3.2 1.3
v 2.9 0.1 1.3
v 2.9 3.2 1.3
v 3.1 0.1 3.9
v 3.1 6.2 3.9
v 2.9 0.1 3.9
v 2.9 6.2 3.9
v 0.9 1.2 3.9
v 0.9 2.3 3.9
v -1.3 1.2 3.9
v -1.3 2.3 3.9
v -2.9 0.1 3.9
v -2.9 6.2 3.9
v -3.1 0.1 3.9
v -3.1 6.2 3.9
v 3.1 0.1 -1.1
v 3 0.1 -1.1
v -3 0.1 -1.1
v -3.1 0.1 -1.1
v 3.1 0.1 -0.6
v 3 0.1 -0.6
v 2.9 0.1 -0.6
v 3.1 0.1 -0.5
v 2.9 0.1 -0.5
v 3.1 0.1 1.2
v 2.9 0.1 1.2
v 3.1 0.1 1.3
v 3 0.1 1.3
v 2.9 0.1 1.3
v 3.1 0.1 3.7
v 3 0.1 3.7
v -3 0.1 3.7
v -3.1 0.1 3.7
v 3 0.1 3.8
v 2.9 0.1 3.8
v -2.9 0.1 3.8
v -3 0.1 3.8
v 3.1 0.1 3.9
v 2.9 0.1 3.9
v -2.9 0.1 3.9
v -3.1 0.1 3.9
v 0.9 2.3 3.8
v -1.3 2.3 3.8
v 0.9 2.3 3.9
v -1.3 2.3 3.9
v 3.1 3.1 -0.5
v 2.9 3.1 -0.5
v 3.1 3.1 1.2
v 2.9 3.1 1.2
v 0.9 1.2 3.8
v -1.3 1.2 3.8
v 0.9 1.2 3.9
v -1.3 1.2 3.9
v 3 3.2 -0.6
v 2.9 3.2 -0.6
v 3 3.2 1.3
v 2.9 3.2 1.3
v 3.1 6.2 -1.1
v 3 6.2 -1.1
v -3 6.2 -1.1
v -3.1 6.2 -1.1
v 3.1 6.2 3.7
v 3 6.2 3.7
v -3 6.2 3.7
v -3.1 6.2 3.7
v 3 6.2 3.8
v 2.9 6.2 3.8
v -2.9 6.2 3.8
v -3 6.2 3.8
v 3.1 6.2 3.9
v 2.9 6.2 3.9
v -2.9 6.2 3.9
v -3.1 6.2 3.9

# faces
f 8/1/1 3/1/1 2/1/1
f 9/1/1 5/1/1 4/1/1
f 10/2/1 2/2/1 1/2/1
f 10/1/1 9/1/1 8/1/1
f 10/1/1 8/1/1 2/1/1
f 11/1/1 5/1/1 9/1/1
f 11/1/1 9/1/1 10/1/1
f 11/2/1 6/2/1 5/2/1
f 12/2/1 10/2/1 1/2/1
f 12/2/1 11/2/1 10/2/1
f 13/2/1 6/2/1 11/2/1
f 13/2/1 11/2/1 12/2/1
f 13/3/1 7/3/1 6/3/1
f 14/3/1 7/3/1 13/3/1
f 17/2/1 16/2/1 15/2/1
f 18/2/1 16/2/1 17/2/1
f 22/2/1 20/2/1 19/2/1
f 23/3/1 21/3/1 20/3/1
f 23/2/1 20/2/1 22/2/1
f 24/3/1 21/3/1 23/3/1
f 25/2/2 26/2/2 30/2/2
f 27/2/2 28/2/2 31/2/2
f 25/2/2 30/2/2 32/2/2
f 30/2/2 31/2/2 32/2/2
f 28/3/2 29/3/2 33/3/2
f 32/2/2 31/2/2 33/2/2
f 31/2/2 28/2/2 33/2/2
f 33/3/2 29/3/2 34/3/2
f 35/1/2 36/1/2 39/1/2
f 37/1/2 38/1/2 40/1/2
f 35/1/2 39/1/2 41/1/2
f 39/1/2 40/1/2 41/1/2
f 40/1/2 38/1/2 42/1/2
f 41/1/2 40/1/2 42/1/2
f 43/2/2 44/2/2 45/2/2
f 45/2/2 44/2/2 46/2/2
f 47/2/2 48/2/2 50/2/2
f 48/3/2 49/3/2 51/3/2
f 50/2/2 48/2/2 51/2/2
f 51/3/2 49/3/2 52/3/2
f 55/2/3 54/2/3 53/2/3
f 56/2/3 54/2/3 55/2/3
f 59/2/3 58/2/3 57/2/3
f 60/2/3 58/2/3 59/2/3
f 63/1/3 62/1/3 61/1/3
f 64/1/3 62/1/3 63/1/3
f 67/1/3 66/1/3 65/1/3
f 68/1/3 66/1/3 67/1/3
f 71/3/3 70/3/3 69/3/3
f 72/3/3 70/3/3 71/3/3
f 73/2/3 72/2/3 71/2/3
f 74/2/3 72/2/3 73/2/3
f 75/2/3 73/2/3 71/2/3
f 76/2/3 72/2/3 74/2/3
f 77/2/3 75/2/3 71/2/3
f 77/2/3 76/2/3 75/2/3
f 78/2/3 72/2/3 76/2/3
f 78/2/3 76/2/3 77/2/3
f 79/3/3 78/3/3 77/3/3
f 80/3/3 78/3/3 79/3/3
f 81/1/4 82/1/4 83/1/4
f 83/1/4 82/1/4 84/1/4
f 85/1/4 86/1/4 87/1/4
f 87/1/4 86/1/4 88/1/4
f 89/3/4 90/3/4 91/3/4
f 91/3/4 90/3/4 92/3/4
f 91/2/4 92/2/4 93/2/4
f 93/2/4 92/2/4 94/2/4
f 91/2/4 93/2/4 95/2/4
f 94/2/4 92/2/4 96/2/4
f 91/2/4 95/2/4 97/2/4
f 95/2/4 96/2/4 97/2/4
f 96/2/4 92/2/4 98/2/4
f 97/2/4 96/2/4 98/2/4
f 97/3/4 98/3/4 99/3/4
f 99/3/4 98/3/4 100/3/4
f 105/2/5 102/2/5 101/2/5
f 106/2/5 102/2/5 105/2/5
f 108/1/5 106/1/5 105/1/5
f 108/1/5 107/1/5 106/1/5
f 109/1/5 107/1/5 108/1/5
f 112/1/5 111/1/5 110/1/5
f 113/1/5 111/1/5 112/1/5
f 114/1/5 111/1/5 113/1/5
f 115/2/5 113/2/5 112/2/5
f 116/2/5 113/2/5 115/2/5
f 117/2/5 104/2/5 103/2/5
f 118/2/5 104/2/5 117/2/5
f 119/3/5 116/3/5 115/3/5
f 122/3/5 118/3/5 117/3/5
f 123/3/5 119/3/5 115/3/5
f 123/3/5 120/3/5 119/3/5
f 124/2/5 121/2/5 120/2/5
f 124/3/5 120/3/5 123/3/5
f 125/3/5 122/3/5 121/3/5
f 125/2/5 121/2/5 124/2/5
f 126/3/5 118/3/5 122/3/5
f 126/3/5 122/3/5 125/3/5
f 129/2/5 128/2/5 127/2/5
f 130/2/5 128/2/5 129/2/5
f 133/1/5 132/1/5 131/1/5
f 134/1/5 132/1/5 133/1/5
f 135/2/6 136/2/6 137/2/6
f 137/2/6 136/2/6 138/2/6
f 139/1/6 140/1/6 141/1/6
f 141/1/6 140/1/6 142/1/6
f 143/2/6 144/2/6 147/2/6
f 147/2/6 144/2/6 148/2/6
f 145/2/6 146/2/6 149/2/6
f 149/2/6 146/2/6 150/2/6
f 147/3/6 148/3/6 151/3/6
f 149/3/6 150/3/6 154/3/6
f 147/3/6 151/3/6 155/3/6
f 151/3/6 152/3/6 155/3/6
f 152/2/6 153/2/6 156/2/6
f 155/3/6 152/3/6 156/3/6
f 153/3/6 154/3/6 157/3/6
f 156/2/6 153/2/6 157/2/6
f 154/3/6 150/3/6 158/3/6
f 157/3/6 154/3/6 158/3/6
