# MagicaVoxel @ Ephtracy

# group
o WindowR

# material
mtllib House-2-WindowR.mtl
usemtl palette

# normals
vn -1 0 0
vn 1 0 0
vn 0 0 1
vn 0 0 -1
vn 0 -1 0
vn 0 1 0

# texcoords
vt 0.845703 0.5
vt 0.849609 0.5
vt 0.908203 0.5

# verts
v -1.3 1.5 0.4
v -1.3 1.5 0.3
v -1.3 2.6 0.4
v -1.3 2.6 0.3
v -0.2 1.5 0.4
v -0.2 1.5 0.3
v -0.2 2.6 0.4
v -0.2 2.6 0.3
v -1.3 1.5 0.4
v -1.3 2.6 0.4
v -1.2 1.6 0.4
v -1.2 2 0.4
v -1.2 2.1 0.4
v -1.2 2.5 0.4
v -1.1 2.1 0.4
v -1.1 2.2 0.4
v -1 2.2 0.4
v -1 2.3 0.4
v -0.9 2.1 0.4
v -0.9 2.2 0.4
v -0.9 2.3 0.4
v -0.9 2.4 0.4
v -0.8 1.6 0.4
v -0.8 2 0.4
v -0.8 2.1 0.4
v -0.8 2.2 0.4
v -0.8 2.4 0.4
v -0.8 2.5 0.4
v -0.7 1.6 0.4
v -0.7 1.8 0.4
v -0.7 2 0.4
v -0.7 2.1 0.4
v -0.7 2.5 0.4
v -0.6 1.6 0.4
v -0.6 1.7 0.4
v -0.6 1.8 0.4
v -0.6 1.9 0.4
v -0.5 1.7 0.4
v -0.5 1.8 0.4
v -0.5 1.9 0.4
v -0.5 2 0.4
v -0.4 1.8 0.4
v -0.4 2 0.4
v -0.3 1.6 0.4
v -0.3 2 0.4
v -0.3 2.1 0.4
v -0.3 2.5 0.4
v -0.2 1.5 0.4
v -0.2 2.6 0.4
v -1.3 1.5 0.3
v -1.3 2.6 0.3
v -1.2 1.6 0.3
v -1.2 2 0.3
v -1.2 2.1 0.3
v -1.2 2.5 0.3
v -1.1 2.1 0.3
v -1.1 2.2 0.3
v -1 2.2 0.3
v -1 2.3 0.3
v -0.9 2.1 0.3
v -0.9 2.2 0.3
v -0.9 2.3 0.3
v -0.9 2.4 0.3
v -0.8 1.6 0.3
v -0.8 2 0.3
v -0.8 2.1 0.3
v -0.8 2.2 0.3
v -0.8 2.4 0.3
v -0.8 2.5 0.3
v -0.7 1.6 0.3
v -0.7 1.8 0.3
v -0.7 2 0.3
v -0.7 2.1 0.3
v -0.7 2.5 0.3
v -0.6 1.6 0.3
v -0.6 1.7 0.3
v -0.6 1.8 0.3
v -0.6 1.9 0.3
v -0.5 1.7 0.3
v -0.5 1.8 0.3
v -0.5 1.9 0.3
v -0.5 2 0.3
v -0.4 1.8 0.3
v -0.4 2 0.3
v -0.3 1.6 0.3
v -0.3 2 0.3
v -0.3 2.1 0.3
v -0.3 2.5 0.3
v -0.2 1.5 0.3
v -0.2 2.6 0.3
v -1.3 1.5 0.4
v -0.2 1.5 0.4
v -1.3 1.5 0.3
v -0.2 1.5 0.3
v -1.3 2.6 0.4
v -0.2 2.6 0.4
v -1.3 2.6 0.3
v -0.2 2.6 0.3

# faces
f 3/3/1 2/3/1 1/3/1
f 4/3/1 2/3/1 3/3/1
f 5/3/2 6/3/2 7/3/2
f 7/3/2 6/3/2 8/3/2
f 11/3/3 10/3/3 9/3/3
f 12/3/3 10/3/3 11/3/3
f 13/3/3 10/3/3 12/3/3
f 14/3/3 10/3/3 13/3/3
f 15/3/3 13/3/3 12/3/3
f 15/1/3 14/1/3 13/1/3
f 16/1/3 14/1/3 15/1/3
f 17/2/3 16/2/3 15/2/3
f 17/1/3 14/1/3 16/1/3
f 18/1/3 14/1/3 17/1/3
f 19/3/3 15/3/3 12/3/3
f 19/2/3 17/2/3 15/2/3
f 19/2/3 18/2/3 17/2/3
f 20/2/3 18/2/3 19/2/3
f 21/1/3 14/1/3 18/1/3
f 21/2/3 18/2/3 20/2/3
f 22/1/3 14/1/3 21/1/3
f 23/3/3 11/3/3 9/3/3
f 23/1/3 12/1/3 11/1/3
f 24/3/3 19/3/3 12/3/3
f 24/1/3 12/1/3 23/1/3
f 25/1/3 20/1/3 19/1/3
f 25/3/3 19/3/3 24/3/3
f 26/2/3 22/2/3 21/2/3
f 26/1/3 20/1/3 25/1/3
f 26/2/3 21/2/3 20/2/3
f 27/1/3 14/1/3 22/1/3
f 27/2/3 22/2/3 26/2/3
f 28/3/3 10/3/3 14/3/3
f 28/1/3 14/1/3 27/1/3
f 29/3/3 26/3/3 25/3/3
f 29/3/3 25/3/3 24/3/3
f 29/3/3 28/3/3 27/3/3
f 29/3/3 23/3/3 9/3/3
f 29/3/3 24/3/3 23/3/3
f 29/3/3 27/3/3 26/3/3
f 30/3/3 28/3/3 29/3/3
f 31/3/3 28/3/3 30/3/3
f 32/3/3 28/3/3 31/3/3
f 33/3/3 10/3/3 28/3/3
f 33/3/3 28/3/3 32/3/3
f 34/3/3 29/3/3 9/3/3
f 34/2/3 30/2/3 29/2/3
f 35/2/3 30/2/3 34/2/3
f 36/1/3 31/1/3 30/1/3
f 36/2/3 30/2/3 35/2/3
f 37/1/3 31/1/3 36/1/3
f 38/1/3 35/1/3 34/1/3
f 38/2/3 36/2/3 35/2/3
f 38/2/3 37/2/3 36/2/3
f 39/2/3 37/2/3 38/2/3
f 40/1/3 31/1/3 37/1/3
f 40/2/3 37/2/3 39/2/3
f 41/3/3 32/3/3 31/3/3
f 41/1/3 31/1/3 40/1/3
f 42/2/3 40/2/3 39/2/3
f 42/1/3 39/1/3 38/1/3
f 42/2/3 41/2/3 40/2/3
f 43/3/3 32/3/3 41/3/3
f 43/2/3 41/2/3 42/2/3
f 44/1/3 42/1/3 38/1/3
f 44/1/3 38/1/3 34/1/3
f 44/1/3 43/1/3 42/1/3
f 44/3/3 34/3/3 9/3/3
f 45/3/3 32/3/3 43/3/3
f 45/1/3 43/1/3 44/1/3
f 46/1/3 33/1/3 32/1/3
f 46/3/3 32/3/3 45/3/3
f 47/3/3 10/3/3 33/3/3
f 47/1/3 33/1/3 46/1/3
f 48/3/3 44/3/3 9/3/3
f 48/3/3 46/3/3 45/3/3
f 48/3/3 47/3/3 46/3/3
f 48/3/3 45/3/3 44/3/3
f 49/3/3 10/3/3 47/3/3
f 49/3/3 47/3/3 48/3/3
f 50/3/4 51/3/4 52/3/4
f 52/3/4 51/3/4 53/3/4
f 53/3/4 51/3/4 54/3/4
f 54/3/4 51/3/4 55/3/4
f 53/3/4 54/3/4 56/3/4
f 54/1/4 55/1/4 56/1/4
f 56/1/4 55/1/4 57/1/4
f 56/2/4 57/2/4 58/2/4
f 57/1/4 55/1/4 58/1/4
f 58/1/4 55/1/4 59/1/4
f 53/3/4 56/3/4 60/3/4
f 56/2/4 58/2/4 60/2/4
f 58/2/4 59/2/4 60/2/4
f 60/2/4 59/2/4 61/2/4
f 59/1/4 55/1/4 62/1/4
f 61/2/4 59/2/4 62/2/4
f 62/1/4 55/1/4 63/1/4
f 50/3/4 52/3/4 64/3/4
f 52/1/4 53/1/4 64/1/4
f 53/3/4 60/3/4 65/3/4
f 64/1/4 53/1/4 65/1/4
f 60/1/4 61/1/4 66/1/4
f 65/3/4 60/3/4 66/3/4
f 62/2/4 63/2/4 67/2/4
f 66/1/4 61/1/4 67/1/4
f 61/2/4 62/2/4 67/2/4
f 63/1/4 55/1/4 68/1/4
f 67/2/4 63/2/4 68/2/4
f 55/3/4 51/3/4 69/3/4
f 68/1/4 55/1/4 69/1/4
f 66/3/4 67/3/4 70/3/4
f 65/3/4 66/3/4 70/3/4
f 68/3/4 69/3/4 70/3/4
f 50/3/4 64/3/4 70/3/4
f 64/3/4 65/3/4 70/3/4
f 67/3/4 68/3/4 70/3/4
f 70/3/4 69/3/4 71/3/4
f 71/3/4 69/3/4 72/3/4
f 72/3/4 69/3/4 73/3/4
f 69/3/4 51/3/4 74/3/4
f 73/3/4 69/3/4 74/3/4
f 50/3/4 70/3/4 75/3/4
f 70/2/4 71/2/4 75/2/4
f 75/2/4 71/2/4 76/2/4
f 71/1/4 72/1/4 77/1/4
f 76/2/4 71/2/4 77/2/4
f 77/1/4 72/1/4 78/1/4
f 75/1/4 76/1/4 79/1/4
f 76/2/4 77/2/4 79/2/4
f 77/2/4 78/2/4 79/2/4
f 79/2/4 78/2/4 80/2/4
f 78/1/4 72/1/4 81/1/4
f 80/2/4 78/2/4 81/2/4
f 72/3/4 73/3/4 82/3/4
f 81/1/4 72/1/4 82/1/4
f 80/2/4 81/2/4 83/2/4
f 79/1/4 80/1/4 83/1/4
f 81/2/4 82/2/4 83/2/4
f 82/3/4 73/3/4 84/3/4
f 83/2/4 82/2/4 84/2/4
f 79/1/4 83/1/4 85/1/4
f 75/1/4 79/1/4 85/1/4
f 83/1/4 84/1/4 85/1/4
f 50/3/4 75/3/4 85/3/4
f 84/3/4 73/3/4 86/3/4
f 85/1/4 84/1/4 86/1/4
f 73/1/4 74/1/4 87/1/4
f 86/3/4 73/3/4 87/3/4
f 74/3/4 51/3/4 88/3/4
f 87/1/4 74/1/4 88/1/4
f 50/3/4 85/3/4 89/3/4
f 86/3/4 87/3/4 89/3/4
f 87/3/4 88/3/4 89/3/4
f 85/3/4 86/3/4 89/3/4
f 88/3/4 51/3/4 90/3/4
f 89/3/4 88/3/4 90/3/4
f 93/3/5 92/3/5 91/3/5
f 94/3/5 92/3/5 93/3/5
f 95/3/6 96/3/6 97/3/6
f 97/3/6 96/3/6 98/3/6
