# MagicaVoxel @ Ephtracy

# group
o GarageDoor

# material
mtllib House-6-GarageDoor.mtl
usemtl palette

# normals
vn -1 0 0
vn 1 0 0
vn 0 0 1
vn 0 0 -1
vn 0 -1 0
vn 0 1 0

# texcoords
vt 0.876953 0.5
vt 0.880859 0.5
vt 0.884766 0.5
vt 0.888672 0.5

# verts
v -5.5 0.7 0.1
v -5.5 0.7 0
v -5.5 1.6 0.1
v -5.5 1.6 0
v -4.6 0.7 0.1
v -4.6 0.7 0
v -4.6 1.6 0.1
v -4.6 1.6 0
v -5.5 0.7 0.1
v -5.5 1.6 0.1
v -5.4 0.7 0.1
v -5.4 0.9 0.1
v -5.4 1 0.1
v -5.4 1.1 0.1
v -5.4 1.2 0.1
v -5.4 1.3 0.1
v -5.4 1.4 0.1
v -5.4 1.5 0.1
v -5.2 0.7 0.1
v -5.2 0.8 0.1
v -4.9 0.7 0.1
v -4.9 0.8 0.1
v -4.7 0.7 0.1
v -4.7 0.9 0.1
v -4.7 1 0.1
v -4.7 1.1 0.1
v -4.7 1.2 0.1
v -4.7 1.3 0.1
v -4.7 1.4 0.1
v -4.7 1.5 0.1
v -4.6 0.7 0.1
v -4.6 1.6 0.1
v -5.5 0.7 0
v -5.5 1.6 0
v -5.4 0.7 0
v -5.4 0.9 0
v -5.4 1 0
v -5.4 1.1 0
v -5.4 1.2 0
v -5.4 1.3 0
v -5.4 1.4 0
v -5.4 1.5 0
v -5.2 0.7 0
v -5.2 0.8 0
v -4.9 0.7 0
v -4.9 0.8 0
v -4.7 0.7 0
v -4.7 0.9 0
v -4.7 1 0
v -4.7 1.1 0
v -4.7 1.2 0
v -4.7 1.3 0
v -4.7 1.4 0
v -4.7 1.5 0
v -4.6 0.7 0
v -4.6 1.6 0
v -5.5 0.7 0.1
v -5.4 0.7 0.1
v -5.2 0.7 0.1
v -4.9 0.7 0.1
v -4.7 0.7 0.1
v -4.6 0.7 0.1
v -5.5 0.7 0
v -5.4 0.7 0
v -5.2 0.7 0
v -4.9 0.7 0
v -4.7 0.7 0
v -4.6 0.7 0
v -5.5 1.6 0.1
v -4.6 1.6 0.1
v -5.5 1.6 0
v -4.6 1.6 0

# faces
f 3/1/1 2/1/1 1/1/1
f 4/1/1 2/1/1 3/1/1
f 5/1/2 6/1/2 7/1/2
f 7/1/2 6/1/2 8/1/2
f 11/1/3 10/1/3 9/1/3
f 12/1/3 10/1/3 11/1/3
f 13/1/3 10/1/3 12/1/3
f 14/1/3 10/1/3 13/1/3
f 15/1/3 10/1/3 14/1/3
f 16/1/3 10/1/3 15/1/3
f 17/1/3 10/1/3 16/1/3
f 18/1/3 10/1/3 17/1/3
f 19/3/3 12/3/3 11/3/3
f 20/3/3 12/3/3 19/3/3
f 21/4/3 20/4/3 19/4/3
f 22/3/3 12/3/3 20/3/3
f 22/4/3 20/4/3 21/4/3
f 23/3/3 22/3/3 21/3/3
f 24/2/3 13/2/3 12/2/3
f 24/3/3 22/3/3 23/3/3
f 24/3/3 12/3/3 22/3/3
f 25/3/3 14/3/3 13/3/3
f 25/2/3 13/2/3 24/2/3
f 26/2/3 15/2/3 14/2/3
f 26/3/3 14/3/3 25/3/3
f 27/3/3 16/3/3 15/3/3
f 27/2/3 15/2/3 26/2/3
f 28/2/3 17/2/3 16/2/3
f 28/3/3 16/3/3 27/3/3
f 29/3/3 18/3/3 17/3/3
f 29/2/3 17/2/3 28/2/3
f 30/1/3 10/1/3 18/1/3
f 30/3/3 18/3/3 29/3/3
f 31/1/3 29/1/3 28/1/3
f 31/1/3 24/1/3 23/1/3
f 31/1/3 30/1/3 29/1/3
f 31/1/3 25/1/3 24/1/3
f 31/1/3 26/1/3 25/1/3
f 31/1/3 28/1/3 27/1/3
f 31/1/3 27/1/3 26/1/3
f 32/1/3 10/1/3 30/1/3
f 32/1/3 30/1/3 31/1/3
f 33/1/4 34/1/4 35/1/4
f 35/1/4 34/1/4 36/1/4
f 36/1/4 34/1/4 37/1/4
f 37/1/4 34/1/4 38/1/4
f 38/1/4 34/1/4 39/1/4
f 39/1/4 34/1/4 40/1/4
f 40/1/4 34/1/4 41/1/4
f 41/1/4 34/1/4 42/1/4
f 35/3/4 36/3/4 43/3/4
f 43/3/4 36/3/4 44/3/4
f 43/4/4 44/4/4 45/4/4
f 44/3/4 36/3/4 46/3/4
f 45/4/4 44/4/4 46/4/4
f 45/3/4 46/3/4 47/3/4
f 36/2/4 37/2/4 48/2/4
f 47/3/4 46/3/4 48/3/4
f 46/3/4 36/3/4 48/3/4
f 37/3/4 38/3/4 49/3/4
f 48/2/4 37/2/4 49/2/4
f 38/2/4 39/2/4 50/2/4
f 49/3/4 38/3/4 50/3/4
f 39/3/4 40/3/4 51/3/4
f 50/2/4 39/2/4 51/2/4
f 40/2/4 41/2/4 52/2/4
f 51/3/4 40/3/4 52/3/4
f 41/3/4 42/3/4 53/3/4
f 52/2/4 41/2/4 53/2/4
f 42/1/4 34/1/4 54/1/4
f 53/3/4 42/3/4 54/3/4
f 52/1/4 53/1/4 55/1/4
f 47/1/4 48/1/4 55/1/4
f 53/1/4 54/1/4 55/1/4
f 48/1/4 49/1/4 55/1/4
f 49/1/4 50/1/4 55/1/4
f 51/1/4 52/1/4 55/1/4
f 50/1/4 51/1/4 55/1/4
f 54/1/4 34/1/4 56/1/4
f 55/1/4 54/1/4 56/1/4
f 63/1/5 58/1/5 57/1/5
f 64/3/5 59/3/5 58/3/5
f 64/1/5 58/1/5 63/1/5
f 65/4/5 60/4/5 59/4/5
f 65/3/5 59/3/5 64/3/5
f 66/3/5 61/3/5 60/3/5
f 66/4/5 60/4/5 65/4/5
f 67/1/5 62/1/5 61/1/5
f 67/3/5 61/3/5 66/3/5
f 68/1/5 62/1/5 67/1/5
f 69/1/6 70/1/6 71/1/6
f 71/1/6 70/1/6 72/1/6
