# MagicaVoxel @ Ephtracy

# group
o 

# material
mtllib Knife.mtl
usemtl palette

# normals
vn -1 0 0
vn 1 0 0
vn 0 0 1
vn 0 0 -1
vn 0 -1 0
vn 0 1 0

# texcoords
vt 0.939453 0.5
vt 0.943359 0.5
vt 0.947266 0.5
vt 0.970703 0.5
vt 0.974609 0.5
vt 0.978516 0.5

# verts
v -0.1 0.2 0
v -0.1 0.2 -0.1
v -0.1 0.3 0
v -0.1 0.3 -0.1
v 0 0 0
v 0 0 -0.1
v 0 0.1 0
v 0 0.1 -0.1
v 0 0.2 0
v 0 0.2 -0.1
v 0 0.3 0
v 0 0.3 -0.1
v 0 0.4 0
v 0 0.4 -0.1
v 0 0.6 0
v 0 0.6 -0.1
v 0 0.7 0
v 0 0.7 -0.1
v 0.1 0 0
v 0.1 0 -0.1
v 0.1 0.1 0
v 0.1 0.1 -0.1
v 0.1 0.2 0
v 0.1 0.2 -0.1
v 0.1 0.3 0
v 0.1 0.3 -0.1
v 0.1 0.4 0
v 0.1 0.4 -0.1
v 0.1 0.6 0
v 0.1 0.6 -0.1
v 0.1 0.7 0
v 0.1 0.7 -0.1
v 0.2 0.2 0
v 0.2 0.2 -0.1
v 0.2 0.3 0
v 0.2 0.3 -0.1
v -0.1 0.2 0
v -0.1 0.3 0
v 0 0 0
v 0 0.1 0
v 0 0.2 0
v 0 0.3 0
v 0 0.4 0
v 0 0.6 0
v 0 0.7 0
v 0.1 0 0
v 0.1 0.1 0
v 0.1 0.2 0
v 0.1 0.3 0
v 0.1 0.4 0
v 0.1 0.6 0
v 0.1 0.7 0
v 0.2 0.2 0
v 0.2 0.3 0
v -0.1 0.2 -0.1
v -0.1 0.3 -0.1
v 0 0 -0.1
v 0 0.1 -0.1
v 0 0.2 -0.1
v 0 0.3 -0.1
v 0 0.4 -0.1
v 0 0.6 -0.1
v 0 0.7 -0.1
v 0.1 0 -0.1
v 0.1 0.1 -0.1
v 0.1 0.2 -0.1
v 0.1 0.3 -0.1
v 0.1 0.4 -0.1
v 0.1 0.6 -0.1
v 0.1 0.7 -0.1
v 0.2 0.2 -0.1
v 0.2 0.3 -0.1
v 0 0 0
v 0.1 0 0
v 0 0 -0.1
v 0.1 0 -0.1
v -0.1 0.2 0
v 0 0.2 0
v 0.1 0.2 0
v 0.2 0.2 0
v -0.1 0.2 -0.1
v 0 0.2 -0.1
v 0.1 0.2 -0.1
v 0.2 0.2 -0.1
v -0.1 0.3 0
v 0 0.3 0
v 0.1 0.3 0
v 0.2 0.3 0
v -0.1 0.3 -0.1
v 0 0.3 -0.1
v 0.1 0.3 -0.1
v 0.2 0.3 -0.1
v 0 0.7 0
v 0.1 0.7 0
v 0 0.7 -0.1
v 0.1 0.7 -0.1

# faces
f 3/4/1 2/4/1 1/4/1
f 4/4/1 2/4/1 3/4/1
f 7/4/1 6/4/1 5/4/1
f 8/4/1 6/4/1 7/4/1
f 9/5/1 8/5/1 7/5/1
f 10/5/1 8/5/1 9/5/1
f 13/2/1 12/2/1 11/2/1
f 14/2/1 12/2/1 13/2/1
f 15/3/1 14/3/1 13/3/1
f 16/3/1 14/3/1 15/3/1
f 17/1/1 16/1/1 15/1/1
f 18/1/1 16/1/1 17/1/1
f 19/4/2 20/4/2 21/4/2
f 21/4/2 20/4/2 22/4/2
f 21/5/2 22/5/2 23/5/2
f 23/5/2 22/5/2 24/5/2
f 25/2/2 26/2/2 27/2/2
f 27/2/2 26/2/2 28/2/2
f 27/3/2 28/3/2 29/3/2
f 29/3/2 28/3/2 30/3/2
f 29/1/2 30/1/2 31/1/2
f 31/1/2 30/1/2 32/1/2
f 33/4/2 34/4/2 35/4/2
f 35/4/2 34/4/2 36/4/2
f 41/4/3 38/4/3 37/4/3
f 42/4/3 38/4/3 41/4/3
f 46/4/3 40/4/3 39/4/3
f 47/5/3 41/5/3 40/5/3
f 47/4/3 40/4/3 46/4/3
f 48/6/3 42/6/3 41/6/3
f 48/5/3 41/5/3 47/5/3
f 49/2/3 43/2/3 42/2/3
f 49/6/3 42/6/3 48/6/3
f 50/3/3 44/3/3 43/3/3
f 50/2/3 43/2/3 49/2/3
f 51/1/3 45/1/3 44/1/3
f 51/3/3 44/3/3 50/3/3
f 52/1/3 45/1/3 51/1/3
f 53/4/3 49/4/3 48/4/3
f 54/4/3 49/4/3 53/4/3
f 55/4/4 56/4/4 59/4/4
f 59/4/4 56/4/4 60/4/4
f 57/4/4 58/4/4 64/4/4
f 58/5/4 59/5/4 65/5/4
f 64/4/4 58/4/4 65/4/4
f 59/6/4 60/6/4 66/6/4
f 65/5/4 59/5/4 66/5/4
f 60/2/4 61/2/4 67/2/4
f 66/6/4 60/6/4 67/6/4
f 61/3/4 62/3/4 68/3/4
f 67/2/4 61/2/4 68/2/4
f 62/1/4 63/1/4 69/1/4
f 68/3/4 62/3/4 69/3/4
f 69/1/4 63/1/4 70/1/4
f 66/4/4 67/4/4 71/4/4
f 71/4/4 67/4/4 72/4/4
f 75/4/5 74/4/5 73/4/5
f 76/4/5 74/4/5 75/4/5
f 81/4/5 78/4/5 77/4/5
f 82/4/5 78/4/5 81/4/5
f 83/4/5 80/4/5 79/4/5
f 84/4/5 80/4/5 83/4/5
f 85/4/6 86/4/6 89/4/6
f 89/4/6 86/4/6 90/4/6
f 87/4/6 88/4/6 91/4/6
f 91/4/6 88/4/6 92/4/6
f 93/1/6 94/1/6 95/1/6
f 95/1/6 94/1/6 96/1/6
